<svg width="284" height="58" viewBox="0 0 284 58" fill="none" xmlns="http://www.w3.org/2000/svg">
<path d="M289.014 57.8028V0H0L29.3839 28.9014L0 57.8028H289.014Z" fill="white"/>
<path d="M50.7735 35.1851V23.7142H54.4119V24.9452C54.7895 24.4949 55.2253 24.15 55.7191 23.9103C56.2129 23.6634 56.7358 23.5399 57.2878 23.5399C57.8833 23.5399 58.4062 23.667 58.8564 23.9212C59.3067 24.1681 59.6916 24.5458 60.0111 25.0541C60.4396 24.5603 60.9262 24.1863 61.4709 23.9321C62.0228 23.6706 62.6074 23.5399 63.2247 23.5399C64.2923 23.5399 65.1057 23.874 65.6649 24.5421C66.2241 25.203 66.5037 26.1689 66.5037 27.4398V35.1851H62.7781V29.0956C62.7781 28.4347 62.6982 27.9808 62.5384 27.7339C62.3787 27.4797 62.1027 27.3526 61.7105 27.3526C61.3184 27.3526 61.017 27.5051 60.8064 27.8102C60.603 28.1079 60.5014 28.5437 60.5014 29.1174V35.1851H56.7758V29.0956C56.7758 28.4347 56.6959 27.9808 56.5361 27.7339C56.3764 27.4797 56.1004 27.3526 55.7082 27.3526C55.3161 27.3526 55.0147 27.5051 54.8041 27.8102C54.6007 28.1079 54.499 28.5437 54.499 29.1174V35.1851H50.7735ZM72.9744 32.4181C73.3012 32.4181 73.5808 32.3019 73.8132 32.0695C74.0528 31.8299 74.1727 31.543 74.1727 31.2089C74.1727 30.8821 74.0528 30.5989 73.8132 30.3592C73.5808 30.1123 73.3012 29.9889 72.9744 29.9889C72.6549 29.9889 72.3753 30.1087 72.1356 30.3484C71.9032 30.588 71.787 30.8749 71.787 31.2089C71.787 31.5503 71.8996 31.8371 72.1247 32.0695C72.3571 32.3019 72.6403 32.4181 72.9744 32.4181ZM74.2707 35.1851V34.4007C73.9439 34.7275 73.5735 34.9745 73.1596 35.1415C72.7529 35.3013 72.3099 35.3811 71.8306 35.3811C70.7485 35.3811 69.8697 35.018 69.1944 34.2918C68.519 33.5656 68.1813 32.6215 68.1813 31.4595C68.1813 30.2685 68.5516 29.3135 69.2924 28.5945C70.0404 27.8683 71.0281 27.5051 72.2554 27.5051C72.5314 27.5051 72.811 27.5451 73.0942 27.625C73.3847 27.7049 73.6716 27.8211 73.9548 27.9736C73.9621 27.9373 73.9657 27.8973 73.9657 27.8537C73.973 27.8029 73.9766 27.7339 73.9766 27.6468C73.9766 27.1747 73.8205 26.8443 73.5082 26.6555C73.2032 26.4666 72.644 26.3722 71.8306 26.3722C71.344 26.3722 70.8901 26.3868 70.4689 26.4158C70.0549 26.4449 69.6628 26.4884 69.2924 26.5465L69.739 23.8994C70.3055 23.8195 70.832 23.7614 71.3186 23.7251C71.8124 23.6888 72.2808 23.6706 72.7238 23.6706C74.5467 23.6706 75.7958 23.9575 76.4712 24.5312C77.1466 25.105 77.4843 26.187 77.4843 27.7775V35.1851H74.2707ZM84.9354 27.418C84.3617 27.418 83.8715 27.6177 83.4648 28.0171C83.0581 28.4093 82.8548 28.8886 82.8548 29.4551C82.8548 30.0215 83.0581 30.5045 83.4648 30.9039C83.8715 31.3033 84.3617 31.5031 84.9354 31.5031C85.5092 31.5031 85.9957 31.307 86.3952 30.9148C86.8019 30.5154 87.0052 30.0288 87.0052 29.4551C87.0052 28.8814 86.8055 28.3984 86.4061 28.0063C86.0066 27.6141 85.5164 27.418 84.9354 27.418ZM87.2558 34.1393C86.8128 34.5532 86.3443 34.8583 85.8505 35.0543C85.3567 35.2432 84.812 35.3376 84.2165 35.3376C82.764 35.3376 81.5258 34.7747 80.5018 33.6491C79.4851 32.5162 78.9767 31.1327 78.9767 29.4987C78.9767 27.7775 79.5069 26.3577 80.5672 25.2393C81.6347 24.1209 82.971 23.5617 84.576 23.5617C85.1061 23.5617 85.5818 23.6234 86.003 23.7469C86.4315 23.8631 86.8273 24.0483 87.1904 24.3025V19.237H90.9595V35.1851H87.2558V34.1393ZM96.025 29.5531L99.5109 27.0367C99.3584 26.8842 99.1841 26.7753 98.988 26.7099C98.792 26.6373 98.5632 26.601 98.3017 26.601C97.6772 26.601 97.1289 26.8406 96.6568 27.32C96.192 27.7993 95.9596 28.3548 95.9596 28.9867C95.9596 29.0738 95.9633 29.1646 95.9705 29.259C95.9851 29.3534 96.0032 29.4515 96.025 29.5531ZM102.975 34.0739C102.292 34.5097 101.57 34.8365 100.807 35.0543C100.052 35.2722 99.2567 35.3811 98.4216 35.3811C96.6714 35.3811 95.2552 34.8437 94.1731 33.7689C93.091 32.6941 92.55 31.2997 92.55 29.5858C92.55 27.8937 93.1164 26.4666 94.2494 25.3047C95.3896 24.1427 96.7876 23.5617 98.4434 23.5617C99.6634 23.5617 100.731 23.9067 101.646 24.5966C102.561 25.2865 103.226 26.2488 103.64 27.4834L97.5065 31.7972C97.7026 31.8771 97.906 31.9388 98.1166 31.9824C98.3272 32.0187 98.5632 32.0368 98.8246 32.0368C99.4419 32.0368 100.077 31.8916 100.731 31.6011C101.392 31.3106 102.042 30.8858 102.681 30.3266L102.975 34.0739ZM113.28 35.1851L110.492 23.7142H114.489L115.557 29.9017L117.028 23.7142H119.511L120.96 29.9017L122.05 23.7142H125.939L123.03 35.1851H119.49L118.041 29.6512L116.723 35.1851H113.28ZM127.028 35.1851V23.7142H130.797V35.1851H127.028ZM127.028 22.712V19.237H130.797V22.712H127.028ZM138.063 35.1851C137.78 35.2286 137.511 35.2613 137.257 35.2831C137.01 35.3049 136.767 35.3158 136.527 35.3158C135.278 35.3158 134.417 35.058 133.945 34.5423C133.48 34.0195 133.248 32.9337 133.248 31.2852V27.1348H132.529V23.7142H133.248V22.4941L137.017 20.3046V23.7142H138.444V27.1348H137.017V29.7165C137.017 30.3411 137.09 30.755 137.235 30.9584C137.388 31.1617 137.671 31.2634 138.085 31.2634C138.245 31.2634 138.372 31.2598 138.466 31.2525C138.568 31.2452 138.666 31.2307 138.76 31.2089L138.063 35.1851ZM140.231 35.1851V19.237H144V24.7491C144.327 24.3569 144.726 24.0592 145.198 23.8558C145.678 23.6452 146.208 23.5399 146.789 23.5399C147.871 23.5399 148.691 23.8704 149.251 24.5312C149.81 25.1921 150.089 26.1616 150.089 27.4398V35.1851H146.32V29.0956C146.32 28.442 146.237 27.9881 146.07 27.7339C145.91 27.4797 145.63 27.3526 145.231 27.3526C144.831 27.3526 144.526 27.5051 144.316 27.8102C144.105 28.1079 144 28.5437 144 29.1174V35.1851H140.231ZM158.466 35.1851V23.7142H162.105V24.9452C162.483 24.4949 162.918 24.15 163.412 23.9103C163.906 23.6634 164.429 23.5399 164.981 23.5399C165.576 23.5399 166.099 23.667 166.549 23.9212C167 24.1681 167.385 24.5458 167.704 25.0541C168.133 24.5603 168.619 24.1863 169.164 23.9321C169.716 23.6706 170.3 23.5399 170.918 23.5399C171.985 23.5399 172.799 23.874 173.358 24.5421C173.917 25.203 174.197 26.1689 174.197 27.4398V35.1851H170.471V29.0956C170.471 28.4347 170.391 27.9808 170.231 27.7339C170.072 27.4797 169.796 27.3526 169.404 27.3526C169.011 27.3526 168.71 27.5051 168.499 27.8102C168.296 28.1079 168.194 28.5437 168.194 29.1174V35.1851H164.469V29.0956C164.469 28.4347 164.389 27.9808 164.229 27.7339C164.069 27.4797 163.793 27.3526 163.401 27.3526C163.009 27.3526 162.708 27.5051 162.497 27.8102C162.294 28.1079 162.192 28.5437 162.192 29.1174V35.1851H158.466ZM176.179 35.1851V23.7142H179.948V35.1851H176.179ZM176.179 22.712V19.237H179.948V22.712H176.179ZM181.887 35.0761V31.4813C182.113 31.5829 182.312 31.6592 182.487 31.71C182.668 31.7536 182.839 31.7754 182.999 31.7754C183.289 31.7754 183.522 31.7064 183.696 31.5684C183.87 31.4232 183.957 31.238 183.957 31.0129C183.957 30.7151 183.641 30.2757 183.01 29.6947C182.857 29.5568 182.734 29.4442 182.639 29.357C182.298 29.0302 182.04 28.678 181.866 28.3004C181.699 27.9155 181.615 27.5051 181.615 27.0694C181.615 25.9873 182.004 25.1413 182.781 24.5312C183.565 23.9139 184.651 23.6053 186.038 23.6053C186.299 23.6053 186.572 23.6198 186.855 23.6489C187.145 23.6779 187.454 23.7215 187.781 23.7796V27.1566C187.563 27.0476 187.349 26.9677 187.138 26.9169C186.928 26.8661 186.724 26.8406 186.528 26.8406C186.245 26.8406 186.02 26.9024 185.853 27.0258C185.693 27.142 185.613 27.3018 185.613 27.5051C185.613 27.6359 185.657 27.7739 185.744 27.9191C185.831 28.0571 186.009 28.2641 186.278 28.54C186.997 29.2445 187.472 29.84 187.705 30.3266C187.944 30.8059 188.064 31.3397 188.064 31.9279C188.064 32.9882 187.712 33.8125 187.007 34.4007C186.31 34.9817 185.326 35.2722 184.055 35.2722C183.808 35.2722 183.529 35.2577 183.216 35.2286C182.911 35.2068 182.468 35.156 181.887 35.0761ZM197.008 35.0979C196.652 35.1851 196.296 35.2504 195.94 35.294C195.591 35.3376 195.236 35.3594 194.873 35.3594C193.18 35.3594 191.804 34.8038 190.744 33.6927C189.691 32.5815 189.164 31.1291 189.164 29.3353C189.164 27.6286 189.72 26.2451 190.831 25.1848C191.942 24.1173 193.391 23.5835 195.178 23.5835C195.49 23.5835 195.798 23.6053 196.103 23.6489C196.408 23.6924 196.71 23.7614 197.008 23.8558V27.6032C196.645 27.5088 196.336 27.4398 196.082 27.3962C195.828 27.3526 195.602 27.3309 195.406 27.3309C194.651 27.3309 194.063 27.516 193.642 27.8864C193.228 28.2568 193.021 28.7724 193.021 29.4333C193.021 30.0724 193.238 30.588 193.674 30.9802C194.117 31.3723 194.702 31.5684 195.428 31.5684C195.631 31.5684 195.857 31.5539 196.103 31.5248C196.358 31.4958 196.659 31.4522 197.008 31.3941V35.0979ZM198.881 35.1851V19.237H202.65V24.7491C202.977 24.3569 203.377 24.0592 203.849 23.8558C204.328 23.6452 204.858 23.5399 205.439 23.5399C206.521 23.5399 207.342 23.8704 207.901 24.5312C208.46 25.1921 208.74 26.1616 208.74 27.4398V35.1851H204.971V29.0956C204.971 28.442 204.887 27.9881 204.72 27.7339C204.56 27.4797 204.281 27.3526 203.881 27.3526C203.482 27.3526 203.177 27.5051 202.966 27.8102C202.756 28.1079 202.65 28.5437 202.65 29.1174V35.1851H198.881ZM210.755 35.1851V23.7142H214.524V35.1851H210.755ZM210.755 22.712V19.237H214.524V22.712H210.755ZM219.579 29.5531L223.065 27.0367C222.912 26.8842 222.738 26.7753 222.542 26.7099C222.346 26.6373 222.117 26.601 221.856 26.601C221.231 26.601 220.683 26.8406 220.211 27.32C219.746 27.7993 219.514 28.3548 219.514 28.9867C219.514 29.0738 219.517 29.1646 219.524 29.259C219.539 29.3534 219.557 29.4515 219.579 29.5531ZM226.529 34.0739C225.846 34.5097 225.124 34.8365 224.361 35.0543C223.606 35.2722 222.811 35.3811 221.976 35.3811C220.225 35.3811 218.809 34.8437 217.727 33.7689C216.645 32.6941 216.104 31.2997 216.104 29.5858C216.104 27.8937 216.67 26.4666 217.803 25.3047C218.944 24.1427 220.342 23.5617 221.997 23.5617C223.217 23.5617 224.285 23.9067 225.2 24.5966C226.115 25.2865 226.78 26.2488 227.194 27.4834L221.06 31.7972C221.257 31.8771 221.46 31.9388 221.671 31.9824C221.881 32.0187 222.117 32.0368 222.379 32.0368C222.996 32.0368 223.631 31.8916 224.285 31.6011C224.946 31.3106 225.596 30.8858 226.235 30.3266L226.529 34.0739ZM234.427 19.1716V22.7556C234.34 22.7556 234.242 22.752 234.133 22.7447C234.031 22.7374 233.966 22.7338 233.937 22.7338C233.523 22.7338 233.225 22.8064 233.043 22.9517C232.862 23.0897 232.771 23.3221 232.771 23.6489V23.7142H234.427V27.1348H232.771V35.1851H229.002V27.1348H228.109V23.7142H229.002V23.4092C229.002 21.9858 229.376 20.9146 230.124 20.1956C230.872 19.4766 231.987 19.1172 233.468 19.1172C233.613 19.1172 233.868 19.1281 234.231 19.1498C234.311 19.1571 234.376 19.1644 234.427 19.1716Z" fill="#333333"/>
</svg>
