<svg width="330" height="28" viewBox="0 0 330 28" fill="none" xmlns="http://www.w3.org/2000/svg">
<mask id="mask0_723_5547" style="mask-type:alpha" maskUnits="userSpaceOnUse" x="0" y="0" width="330" height="28">
<rect x="0.374837" y="2.80951" width="328.93" height="23.9177" rx="10.7907" transform="rotate(-0.424095 0.374837 2.80951)" fill="#D9D9D9" stroke="black" stroke-width="0.744186"/>
</mask>
<g mask="url(#mask0_723_5547)">
<rect x="0.519107" y="-0.000604386" width="76.2297" height="8.61851" rx="4.30925" transform="matrix(0.696716 -0.717347 0.698385 0.715723 -36.2855 38.3397)" fill="#222222" stroke="#121212" stroke-width="0.744186"/>
<rect x="0.519138" y="-0.000604408" width="76.2289" height="8.61841" rx="4.3092" transform="matrix(0.696758 -0.717306 0.698426 0.715682 -17.8168 38.203)" fill="#222222" stroke="#121212" stroke-width="0.744186"/>
<rect x="0.519138" y="-0.000604408" width="76.2289" height="8.61841" rx="4.3092" transform="matrix(0.696758 -0.717306 0.698426 0.715682 0.653933 38.0702)" fill="#222222" stroke="#121212" stroke-width="0.744186"/>
<rect x="0.519138" y="-0.000604408" width="76.2289" height="8.61841" rx="4.3092" transform="matrix(0.696758 -0.717306 0.698426 0.715682 19.1207 37.9257)" fill="#222222" stroke="#121212" stroke-width="0.744186"/>
<rect x="0.519138" y="-0.000604408" width="76.2289" height="8.61841" rx="4.3092" transform="matrix(0.696758 -0.717306 0.698426 0.715682 37.5934 37.7909)" fill="#222222" stroke="#121212" stroke-width="0.744186"/>
<rect x="0.519138" y="-0.000604408" width="76.2289" height="8.61841" rx="4.3092" transform="matrix(0.696758 -0.717306 0.698426 0.715682 56.0641 37.6561)" fill="#222222" stroke="#121212" stroke-width="0.744186"/>
<rect x="0.519138" y="-0.000604408" width="76.2289" height="8.61841" rx="4.3092" transform="matrix(0.696758 -0.717306 0.698426 0.715682 74.5328 37.5214)" fill="#222222" stroke="#121212" stroke-width="0.744186"/>
<rect x="0.519138" y="-0.000604408" width="76.2289" height="8.61841" rx="4.3092" transform="matrix(0.696758 -0.717306 0.698426 0.715682 93.0016 37.3866)" fill="#222222" stroke="#121212" stroke-width="0.744186"/>
<rect x="0.519138" y="-0.000604408" width="76.2289" height="8.61841" rx="4.3092" transform="matrix(0.696758 -0.717306 0.698426 0.715682 111.472 37.2421)" fill="#222222" stroke="#121212" stroke-width="0.744186"/>
<rect x="0.519138" y="-0.000604408" width="76.2289" height="8.61841" rx="4.3092" transform="matrix(0.696758 -0.717306 0.698426 0.715682 129.941 37.1093)" fill="#222222" stroke="#121212" stroke-width="0.744186"/>
<rect x="0.519138" y="-0.000604408" width="76.2289" height="8.61841" rx="4.3092" transform="matrix(0.696758 -0.717306 0.698426 0.715682 148.41 36.9725)" fill="#222222" stroke="#121212" stroke-width="0.744186"/>
<rect x="0.519138" y="-0.000604408" width="76.2289" height="8.61841" rx="4.3092" transform="matrix(0.696758 -0.717306 0.698426 0.715682 166.88 36.8358)" fill="#222222" stroke="#121212" stroke-width="0.744186"/>
<rect x="0.519138" y="-0.000604408" width="76.2289" height="8.61841" rx="4.3092" transform="matrix(0.696758 -0.717306 0.698426 0.715682 185.351 36.7011)" fill="#222222" stroke="#121212" stroke-width="0.744186"/>
<rect x="0.519138" y="-0.000604408" width="76.2289" height="8.61841" rx="4.3092" transform="matrix(0.696758 -0.717306 0.698426 0.715682 203.82 36.5585)" fill="#222222" stroke="#121212" stroke-width="0.744186"/>
<rect x="0.519138" y="-0.000604408" width="76.2289" height="8.61841" rx="4.3092" transform="matrix(0.696758 -0.717306 0.698426 0.715682 222.289 36.4218)" fill="#222222" stroke="#121212" stroke-width="0.744186"/>
<rect x="0.519138" y="-0.000604408" width="76.2289" height="8.61841" rx="4.3092" transform="matrix(0.696758 -0.717306 0.698426 0.715682 240.759 36.2889)" fill="#222222" stroke="#121212" stroke-width="0.744186"/>
<rect x="0.519138" y="-0.000604408" width="76.2289" height="8.61841" rx="4.3092" transform="matrix(0.696758 -0.717306 0.698426 0.715682 259.228 36.1542)" fill="#222222" stroke="#121212" stroke-width="0.744186"/>
<rect x="0.519138" y="-0.000604408" width="76.2289" height="8.61841" rx="4.3092" transform="matrix(0.696758 -0.717306 0.698426 0.715682 277.701 36.0175)" fill="#222222" stroke="#121212" stroke-width="0.744186"/>
<rect x="0.519138" y="-0.000604408" width="76.2289" height="8.61841" rx="4.3092" transform="matrix(0.696758 -0.717306 0.698426 0.715682 296.166 35.8749)" fill="#222222" stroke="#121212" stroke-width="0.744186"/>
<rect x="0.519138" y="-0.000604408" width="76.2289" height="8.61841" rx="4.3092" transform="matrix(0.696758 -0.717306 0.698426 0.715682 314.636 35.7401)" fill="#222222" stroke="#121212" stroke-width="0.744186"/>
</g>
</svg>
