<svg width="72" height="36" viewBox="0 0 72 36" fill="none" xmlns="http://www.w3.org/2000/svg">
<path d="M23.2919 1.21484C25.7942 -0.240374 28.9944 0.619527 30.4393 3.14648C31.8865 5.67777 31.0278 8.91094 28.5243 10.3672L28.5204 10.3701L16.4589 17.5264L4.0155 12.4375L23.2919 1.21484Z" fill="#EA4335" stroke="white" stroke-width="1.01408"/>
<path d="M1.20996 14.8887C2.65489 12.3615 5.85591 11.5014 8.3584 12.957L28.5234 24.6982C31.027 26.1545 31.8857 29.3876 30.4385 31.9189C29.4697 33.6108 27.7069 34.5595 25.9014 34.5596C25.0166 34.5596 24.1195 34.3317 23.29 33.8506H23.291L3.125 22.1104V22.1094C0.621696 20.6531 -0.23721 17.4199 1.20996 14.8887Z" fill="#4285F4" stroke="white" stroke-width="1.01408"/>
<path d="M67.897 22.5967L48.5708 33.8486C47.7416 34.3295 46.8449 34.5576 45.9604 34.5576C44.1546 34.5575 42.3918 33.6088 41.4292 31.918V31.916L41.2993 31.6768C40.0323 29.1855 40.9183 26.1075 43.3442 24.6963L43.3501 24.6924L56.0308 17.0898L67.897 22.5967Z" fill="#FBBC04" stroke="white" stroke-width="1.01408"/>
<path d="M41.4202 3.14648C42.8652 0.619276 46.0662 -0.240743 48.5687 1.21484L68.7337 12.9551V12.9561C71.1591 14.3668 72.0409 17.4451 70.7776 19.9375L70.6487 20.1768C69.6805 21.8736 67.9181 22.8174 66.1116 22.8174C65.3369 22.8174 64.5492 22.6426 63.8138 22.2773L63.5013 22.1084L43.3353 10.3682V10.3672C40.8319 8.91088 39.9731 5.67768 41.4202 3.14648Z" fill="#34A853" stroke="white" stroke-width="1.01408"/>
</svg>
