<svg width="93" height="95" viewBox="0 0 93 95" fill="none" xmlns="http://www.w3.org/2000/svg">
<path d="M46.4007 13.2227L51.9864 0L54.3138 14.2264L62.8394 2.73487L61.7859 17.1118L72.7369 8.07916L68.3516 21.7786L81.1155 15.6565L73.6678 27.9007L87.4606 25.0906L77.3671 35.1268L91.4295 35.8042L79.2781 43.0805L92.7769 47.1703L79.2781 51.26L91.4295 58.5363L77.3671 59.2137L87.4606 69.25L73.6678 66.4398L81.1155 78.684L68.3516 72.5619L72.7369 86.2614L61.7859 77.2288L62.8394 91.6057L54.3138 80.1142L51.9864 94.3406L46.4007 81.1178L40.7905 94.3406L38.4631 80.1142L29.9375 91.6057L30.991 77.2288L20.04 86.2614L24.4253 72.5619L11.6614 78.684L19.109 66.4398L5.31624 69.25L15.4097 59.2137L1.34743 58.5363L13.4988 51.26L0 47.1703L13.4988 43.0805L1.34743 35.8042L15.4097 35.1268L5.31624 25.0906L19.109 27.9007L11.6614 15.6565L24.4253 21.7786L20.04 8.07916L30.991 17.1118L29.9375 2.73487L38.4631 14.2264L40.7905 0L46.4007 13.2227Z" fill="#687FFD"/>
</svg>
