<svg width="41" height="41" viewBox="0 0 41 41" fill="none" xmlns="http://www.w3.org/2000/svg">
<rect width="40.5634" height="40.5634" rx="9.12676" fill="white"/>
<path d="M24.8242 10.1426H15.7365C12.6504 10.1426 10.1396 12.6535 10.1396 15.7396V24.8273C10.1396 27.9135 12.6504 30.4243 15.7365 30.4243H24.8242C27.9106 30.4243 30.4213 27.9134 30.4213 24.8273V15.7396C30.4215 12.6535 27.9106 10.1426 24.8242 10.1426ZM28.622 24.8273C28.622 26.9213 26.9183 28.6248 24.8243 28.6248H15.7365C13.6427 28.6249 11.9391 26.9213 11.9391 24.8273V15.7396C11.9391 13.6457 13.6427 11.9421 15.7365 11.9421H24.8242C26.9182 11.9421 28.6218 13.6457 28.6218 15.7396V24.8273H28.622Z" fill="#333333"/>
<path d="M20.2827 15.0532C17.401 15.0532 15.0566 17.3976 15.0566 20.2793C15.0566 23.1609 17.401 25.5051 20.2827 25.5051C23.1644 25.5051 25.5088 23.1609 25.5088 20.2793C25.5088 17.3976 23.1644 15.0532 20.2827 15.0532ZM20.2827 23.7055C18.3934 23.7055 16.8561 22.1685 16.8561 20.2792C16.8561 18.3897 18.3933 16.8526 20.2827 16.8526C22.1722 16.8526 23.7093 18.3897 23.7093 20.2792C23.7093 22.1685 22.1721 23.7055 20.2827 23.7055Z" fill="#333333"/>
<path d="M25.7277 13.5322C25.381 13.5322 25.0404 13.6726 24.7956 13.9185C24.5495 14.1632 24.4081 14.504 24.4081 14.8519C24.4081 15.1987 24.5496 15.5393 24.7956 15.7852C25.0403 16.0299 25.381 16.1715 25.7277 16.1715C26.0756 16.1715 26.4151 16.0299 26.661 15.7852C26.907 15.5393 27.0473 15.1986 27.0473 14.8519C27.0473 14.504 26.907 14.1632 26.661 13.9185C26.4163 13.6726 26.0756 13.5322 25.7277 13.5322Z" fill="#333333"/>
</svg>
