<svg width="223" height="300" viewBox="0 0 223 300" fill="none" xmlns="http://www.w3.org/2000/svg">
<path d="M266.056 176.395C254.637 151.102 230.655 139.554 208.82 130.254V135.369C204.461 135.369 204.461 135.369 198.74 142.083C187.742 155.365 176.458 166.601 160.868 171.174V140.484H156.509L139.071 176.289L134.712 145.599H132.532L128.037 153.272L123.814 160.944L125.993 150.714L122.009 150.624L116.73 150.554C103.895 150.333 93.1381 154.48 81.3613 160.295C66.7112 168.836 60.8223 179.806 55.3389 197.417C50.2703 213.811 47.4044 225.888 33.3576 234.151C22.3224 239.588 12.5479 245.786 6.11182 258.127L6.11184 258.128C6.82702 263.782 6.82703 263.782 8.29147 268.357L12.6508 265.16L19.1898 260.685C38.8224 246.608 61.3492 245.188 83.9242 244.93L88.8965 244.911C95.586 244.867 102.275 244.84 108.965 244.861C114.099 244.944 119.226 245.016 124.361 244.969L129.22 244.911C135.463 245.126 139.361 244.611 145.61 242.783L145.61 242.783C148.435 238.852 148.435 238.852 150.77 234.048L150.771 234.048C165.716 207.232 165.716 207.232 187.024 186.519C185.163 191.707 185.163 191.707 181.83 194.68C163.86 211.274 152.879 230.195 145.61 255.57C152.073 252.621 158.524 249.992 165.227 247.898C176.018 246.592 182.725 248.275 191.926 255.57C201.563 265.825 213.195 275.741 215.087 291.374C215.18 293.983 213.277 297.244 213.367 299.776C201.481 313.344 184.16 324.201 175.989 328.298C150.105 335.647 118.011 338.325 94.5244 322.064C86.0083 316.151 79.1773 313.197 69.322 311.834C67.5112 321.386 66.4168 330.927 65.456 340.634C64.1291 354.321 64.1246 354.367 62.7965 367.961L62.783 368.098H237.156L234.976 345.081C234.234 340.876 233.504 336.667 232.797 332.454C231.873 321.411 233.738 316.373 239.336 307.518C258.734 278.509 267.403 246.563 268.37 209.953L268.489 203.781C268.772 194.222 268.974 185.441 266.056 176.395Z" fill="#FCFCFC"/>
<path d="M185.047 188.009C182.591 196.648 180.922 197.951 174.966 203.344C161.242 216.949 152.047 234.808 145.815 254.462C148.332 253.196 150.849 251.931 153.443 250.628C165.342 245.451 175.05 244.635 187.362 249.35C198.156 257.967 211.117 272.618 214.573 287.817C215.081 294.449 215.035 299.178 213.381 305.579C201.278 319.261 183.298 325.192 167.61 331.137C167.61 331.981 164.735 331.61 164.735 332.479C154.398 335.534 147.143 336.81 136.551 336.888C134.79 336.941 133.028 336.993 131.213 337.048C112.937 337.185 98.2917 331.002 82.4709 320.435C80.4228 319.08 78.3746 317.726 76.2643 316.331C74.7612 315.313 73.258 314.295 71.7094 313.246C90.7798 294.854 110.067 279.374 134.202 272.223C139.626 270.302 139.626 270.302 142.171 264.415C142.895 262.019 142.895 262.019 143.635 259.573C142.196 259.573 140.758 259.573 139.276 259.573C139.276 257.043 139.276 254.513 139.276 251.906C137.837 253.593 136.399 255.279 134.917 257.017C134.197 254.487 133.478 251.957 132.737 249.35C126.983 249.35 121.229 249.35 115.301 249.35C116.02 251.037 116.739 252.724 117.48 254.462C117.773 261.292 117.574 268.065 117.48 274.908C115.322 274.908 113.165 274.908 110.942 274.908C110.967 273.337 110.992 271.765 111.018 270.146C111.038 268.08 111.057 266.015 111.078 263.886C111.103 261.84 111.128 259.794 111.154 257.686C111.152 251.475 111.152 251.475 108.762 244.238C120.27 244.238 131.778 244.238 143.635 244.238C145.073 240.021 146.512 235.804 147.994 231.459C154.821 218.544 171.552 188.009 185.047 188.009Z" fill="#B47F6A"/>
<path d="M148.009 11.4897C148.729 13.1779 149.448 14.8661 150.189 16.6054C154.32 19.2157 158.554 21.5258 162.798 23.8692C173.72 30.4225 173.72 30.4225 176.208 38.9863C176.253 40.8855 176.298 42.7846 176.344 44.7414C174.186 46.0075 174.186 46.0075 171.985 47.2992C170.487 52.7178 170.487 52.7178 169.533 58.9692C169.168 61.0827 168.802 63.1962 168.426 65.3738C168.162 67.0059 167.898 68.638 167.626 70.3195C168.991 70.0756 170.357 69.8316 171.764 69.5802C174.436 69.1548 174.436 69.1548 177.162 68.7209C179.817 68.2758 179.817 68.2758 182.525 67.8217C184.082 67.8019 185.639 67.7821 187.242 67.7617C188.681 69.4499 190.119 71.138 191.601 72.8774C191.213 81.5304 189.883 85.0595 184.926 91.5814C183.533 93.0058 182.139 94.4302 180.703 95.8977C182.355 97.1045 182.355 97.1045 184.041 98.3356C185.457 99.4303 186.873 100.525 188.332 101.653C190.456 103.255 190.456 103.255 192.623 104.89C193.725 106.143 194.826 107.396 195.961 108.687C195.961 112.063 195.961 115.439 195.961 118.918C198.118 119.762 200.276 120.606 202.499 121.476C200.291 122.125 198.083 122.775 195.807 123.444C192.861 124.333 189.915 125.222 186.97 126.112C185.52 126.536 184.07 126.959 182.577 127.396C175.283 129.619 169.257 132.032 162.466 136.053C160.573 137.151 158.679 138.249 156.728 139.381C155.289 138.537 153.851 137.692 152.368 136.823C151.829 138.564 151.29 140.305 150.734 142.098C147.482 151.066 143.501 159.117 139.291 167.517C138.572 167.517 137.852 167.517 137.111 167.517C137.004 165.515 136.898 163.514 136.788 161.452C136.543 157.569 136.543 157.569 136.294 153.608C136.142 151.027 135.99 148.445 135.834 145.785C135.536 143.672 135.238 141.558 134.932 139.381C133.493 138.537 132.055 137.692 130.572 136.823C133.569 132.986 133.569 132.986 137.111 129.149C138.55 129.149 139.988 129.149 141.47 129.149C141.344 127.577 141.218 126.004 141.087 124.383C140.989 122.316 140.891 120.249 140.789 118.119C140.663 116.071 140.536 114.024 140.406 111.914C141.47 106.129 141.47 106.129 146.962 101.543C148.746 100.524 150.53 99.5052 152.368 98.4555C150.789 99.2238 149.21 99.992 147.584 100.784C125.7 110.885 125.7 110.885 115.315 106.129C110.139 102.132 110.139 102.132 106.597 95.8977C105.229 81.4516 106.24 74.7845 113.136 62.6461C113.675 59.5863 114.214 56.5265 114.77 53.374C117.495 44.7414 117.495 44.7414 124.578 40.9046C125.922 40.3771 127.265 39.8495 128.648 39.306C136.26 35.1547 141.197 27.1908 145.83 19.1632C146.549 16.631 147.268 14.0987 148.009 11.4897Z" fill="#B3816B"/>
<path d="M89.8632 243.415C91.6714 243.37 93.4797 243.326 95.3428 243.279C100.454 243.286 100.454 243.286 108.783 244.214C113.19 251.976 113.874 254.333 114.091 263.23C114.222 266.151 114.222 266.151 114.355 269.132C112.531 277.774 108.404 280.119 102.249 285.121C101.09 286.069 99.9303 287.017 98.7355 287.994C93.7423 292.052 88.7076 296.035 83.6615 300.002C76.5762 305.37 76.5762 305.37 71.7601 313.245C70.3227 313.245 68.8854 313.245 67.4044 313.245C67.4044 317.463 67.4044 321.682 67.4044 326.028C66.6858 322.653 65.9671 319.278 65.2266 315.801C63.6966 316.622 62.1666 317.442 60.5903 318.288C49.3144 323.025 34.9235 324.629 23.8311 318.498C15.4393 310.626 9.60543 301.839 7.68465 289.396C7.05494 279.899 6.73026 272.793 11.6405 264.897C32.745 242.928 63.0772 243.78 89.8632 243.415Z" fill="#B47E6A"/>
<path d="M187.299 1.299C203.234 6.96977 215.318 18.1889 224.386 34.5346C228.097 47.2743 228.607 62.5467 225.229 75.4299C220.331 86.7843 212.989 93.2922 204.112 100.337C200.079 103.32 200.079 103.32 198.207 108.675C188.939 107.469 184.681 101.091 178.572 93.3359C182.172 89.9612 185.771 86.5866 189.48 83.1096C188.4 76.7821 188.4 76.7821 187.299 70.3267C180.819 70.3267 174.34 70.3267 167.664 70.3267C168.744 58.9371 168.744 58.9371 169.846 47.3175C172.006 46.4738 174.165 45.6301 176.391 44.7609C173.457 33.162 169.797 29.2913 160.847 23.5093C158.861 22.201 156.876 20.8926 154.83 19.5446C153.306 18.5856 151.782 17.6266 150.212 16.6385C157.372 -2.72645 171.411 -0.858026 187.299 1.299Z" fill="#262020"/>
<path d="M204.661 121.561C206.099 124.932 207.537 128.303 209.019 131.776C206.519 134.706 204.018 137.634 201.512 140.555C199.14 143.349 196.793 146.171 194.464 149.015C186.834 158.236 179.52 166.445 169.798 172.638C166.203 172.638 162.608 172.638 158.903 172.638C158.903 160.839 158.903 149.04 158.903 136.884C173.889 127.303 187.456 121.561 204.661 121.561Z" fill="#D8D8D7"/>
<path d="M2.76612 258.494C5.41283 260.378 8.05954 262.261 10.7864 264.201C10.6469 265.963 10.5073 267.725 10.3635 269.541C9.41387 290.683 13.5508 302.172 22.8169 318.421C10.2135 317.041 10.2135 317.041 4.34043 310.997C-0.552107 301.642 -0.110878 295.355 0.134455 283.82C0.183564 280.282 0.232673 276.743 0.28327 273.097C0.761043 264.201 0.761043 264.201 2.76612 258.494Z" fill="#E3ECE1"/>
<path d="M113.133 246.757C128.06 246.258 128.06 246.258 132.785 246.757C134.226 248.444 135.667 250.13 137.152 251.868C138.593 251.024 140.034 250.181 141.519 249.312C140.017 257.936 140.017 257.936 137.152 267.199C129.99 272.272 126.008 272.31 117.5 272.31C116.059 263.877 114.618 255.445 113.133 246.757Z" fill="#B8826E"/>
<path d="M152.363 136.775C154.521 137.619 156.679 138.463 158.903 139.332C156.745 140.598 156.745 140.598 154.543 141.89C153.032 146.124 151.589 150.391 150.183 154.675C148.035 159.254 145.808 163.783 143.508 168.259C142.358 170.517 141.209 172.775 140.025 175.101C138.579 177.648 138.579 177.648 137.104 180.246C136.385 180.246 135.666 180.246 134.925 180.246C133.486 170.12 132.047 159.994 130.565 149.561C126.249 157.155 126.249 157.155 121.846 164.903C120.407 164.059 118.968 163.215 117.486 162.346C118.925 159.815 120.363 157.283 121.846 154.675C119.688 152.987 117.53 151.3 115.306 149.561C116.655 149.297 118.004 149.033 119.393 148.762C124.822 147.323 124.822 147.323 128.385 139.332C130.543 139.332 132.701 139.332 134.925 139.332C136.363 147.771 137.802 156.209 139.284 164.903C143.6 155.621 147.916 146.339 152.363 136.775Z" fill="#757167"/>
<path d="M139.328 259.579C140.768 259.579 142.208 259.579 143.691 259.579C142.208 265.703 142.208 265.703 139.328 272.366C134.404 274.954 134.404 274.954 128.149 276.682C113.677 281.598 102.324 289.879 89.9124 299.597C78.857 308.172 78.857 308.172 71.7094 308.172C76.4743 304.112 81.2467 300.064 86.0239 296.024C88.0167 294.323 88.0167 294.323 90.0498 292.587C114.35 272.084 114.35 272.084 128.149 269.649C133.058 268.944 133.058 268.944 137.147 267.251C137.867 264.719 138.587 262.187 139.328 259.579Z" fill="#6B4F43"/>
</svg>
