<svg width="1920" height="1873" viewBox="0 0 1920 1873" fill="none" xmlns="http://www.w3.org/2000/svg">
<g clip-path="url(#clip0_6_207)">
<mask id="mask0_6_207" style="mask-type:luminance" maskUnits="userSpaceOnUse" x="0" y="0" width="1920" height="400">
<path d="M1920 0H0V399.929H1920V0Z" fill="white"/>
</mask>
<g mask="url(#mask0_6_207)">
<path d="M1920 0H0V399.929H1920V0Z" fill="url(#paint0_linear_6_207)"/>
<path d="M1824 1199.79V-799.858M1956 1199.79V-799.858M2088 1199.79V-799.858M2220 1199.79V-799.858H-420V1199.79M1296 1199.79V-799.858M1428 1199.79V-799.858M1560 1199.79V-799.858M1692 1199.79V-799.858M768 1199.79V-799.858M900 1199.79V-799.858M1032 1199.79V-799.858M1164 1199.79V-799.858M240 1199.79V-799.858M372 1199.79V-799.858M504 1199.79V-799.858M636 1199.79V-799.858M108 1199.79V-799.858M-288 1199.79V-799.858M-156 1199.79V-799.858M-24 1199.79V-799.858M2220 298.614H-420M-420 435.922H2220M2220 573.231H-420M-420 710.54H2220M2220 847.849H-420M-420 985.158H2220M2220 1122.47H-420M-420 -662.549H2220M2220 -525.24H-420M-420 -387.931H2220M2220 -250.622H-420M-420 -113.313H2220M2220 23.9958H-420M-420 161.305H2220" stroke="url(#paint1_linear_6_207)" stroke-width="3"/>
</g>
<mask id="mask1_6_207" style="mask-type:luminance" maskUnits="userSpaceOnUse" x="0" y="399" width="1920" height="1474">
<path d="M1920 399.929H0V1873H1920V399.929Z" fill="white"/>
</mask>
<g mask="url(#mask1_6_207)">
<path d="M1920 399.929H0V1873H1920V399.929Z" fill="#121212"/>
<mask id="mask2_6_207" style="mask-type:luminance" maskUnits="userSpaceOnUse" x="-24" y="297" width="1979" height="1576">
<path d="M1954.67 297.28H-24V1873H1954.67V297.28Z" fill="white"/>
</mask>
<g mask="url(#mask2_6_207)">
<path d="M108.911 296.281H-25V441.528H108.911V296.281Z" stroke="#5A407B" stroke-width="1.5"/>
<path d="M240.822 296.281H106.911V441.528H240.822V296.281Z" stroke="#5A407B" stroke-width="1.5"/>
<path d="M372.733 296.281H238.823V441.528H372.733V296.281Z" stroke="#5A407B" stroke-width="1.5"/>
<path d="M504.644 296.281H370.733V441.528H504.644V296.281Z" stroke="#5A407B" stroke-width="1.5"/>
<path d="M636.555 296.281H502.644V441.528H636.555V296.281Z" stroke="#5A407B" stroke-width="1.5"/>
<path d="M768.467 296.281H634.556V441.528H768.467V296.281Z" stroke="#5A407B" stroke-width="1.5"/>
<path d="M900.378 296.281H766.467V441.528H900.378V296.281Z" stroke="#5A407B" stroke-width="1.5"/>
<path d="M1032.29 296.281H898.377V441.528H1032.29V296.281Z" stroke="#5A407B" stroke-width="1.5"/>
<path d="M1164.2 296.281H1030.29V441.528H1164.2V296.281Z" stroke="#5A407B" stroke-width="1.5"/>
<path d="M1296.11 296.281H1162.2V441.528H1296.11V296.281Z" stroke="#5A407B" stroke-width="1.5"/>
<path d="M1428.02 296.281H1294.11V441.528H1428.02V296.281Z" stroke="#5A407B" stroke-width="1.5"/>
<path d="M1559.94 296.281H1426.03V441.528H1559.94V296.281Z" stroke="#5A407B" stroke-width="1.5"/>
<path d="M1691.84 296.281H1557.93V441.528H1691.84V296.281Z" stroke="#5A407B" stroke-width="1.5"/>
<path d="M1823.75 296.281H1689.84V441.528H1823.75V296.281Z" stroke="#5A407B" stroke-width="1.5"/>
<path d="M1955.67 296.281H1821.76V441.528H1955.67V296.281Z" stroke="#5A407B" stroke-width="1.5"/>
<path d="M240.822 439.528H106.911V584.776H240.822V439.528Z" stroke="#5A407B" stroke-width="1.5"/>
<path d="M108.911 439.528H-25V584.776H108.911V439.528Z" stroke="#5A407B" stroke-width="1.5"/>
<path d="M372.733 439.528H238.823V584.776H372.733V439.528Z" stroke="#5A407B" stroke-width="1.5"/>
<path d="M504.644 439.528H370.733V584.776H504.644V439.528Z" stroke="#5A407B" stroke-width="1.5"/>
<path d="M636.555 439.528H502.644V584.776H636.555V439.528Z" stroke="#5A407B" stroke-width="1.5"/>
<path d="M768.467 439.528H634.556V584.776H768.467V439.528Z" stroke="#5A407B" stroke-width="1.5"/>
<path d="M900.378 439.528H766.467V584.776H900.378V439.528Z" stroke="#5A407B" stroke-width="1.5"/>
<path d="M1032.29 439.528H898.377V584.776H1032.29V439.528Z" stroke="#5A407B" stroke-width="1.5"/>
<path d="M1164.2 439.528H1030.29V584.776H1164.2V439.528Z" stroke="#5A407B" stroke-width="1.5"/>
<path d="M1296.11 439.528H1162.2V584.776H1296.11V439.528Z" stroke="#5A407B" stroke-width="1.5"/>
<path d="M1428.02 439.528H1294.11V584.776H1428.02V439.528Z" stroke="#5A407B" stroke-width="1.5"/>
<path d="M1559.94 439.528H1426.03V584.776H1559.94V439.528Z" stroke="#5A407B" stroke-width="1.5"/>
<path d="M1691.84 439.528H1557.93V584.776H1691.84V439.528Z" stroke="#5A407B" stroke-width="1.5"/>
<path d="M1823.75 439.528H1689.84V584.776H1823.75V439.528Z" stroke="#5A407B" stroke-width="1.5"/>
<path d="M1823.75 439.528H1689.84V584.776H1823.75V439.528Z" stroke="#5A407B" stroke-width="1.5"/>
<path d="M1955.67 439.528H1821.76V584.776H1955.67V439.528Z" stroke="#5A407B" stroke-width="1.5"/>
<path d="M108.911 582.775H-25V728.022H108.911V582.775Z" stroke="#5A407B" stroke-width="1.5"/>
<path d="M240.822 582.775H106.911V728.022H240.822V582.775Z" stroke="#5A407B" stroke-width="1.5"/>
<path d="M372.733 582.775H238.823V728.022H372.733V582.775Z" stroke="#5A407B" stroke-width="1.5"/>
<path d="M504.644 582.775H370.733V728.022H504.644V582.775Z" stroke="#5A407B" stroke-width="1.5"/>
<path d="M636.555 582.775H502.644V728.022H636.555V582.775Z" stroke="#5A407B" stroke-width="1.5"/>
<path d="M768.467 582.775H634.556V728.022H768.467V582.775Z" stroke="#5A407B" stroke-width="1.5"/>
<path d="M900.378 582.775H766.467V728.022H900.378V582.775Z" stroke="#5A407B" stroke-width="1.5"/>
<path d="M1032.29 582.775H898.377V728.022H1032.29V582.775Z" stroke="#5A407B" stroke-width="1.5"/>
<path d="M1164.2 582.775H1030.29V728.022H1164.2V582.775Z" stroke="#5A407B" stroke-width="1.5"/>
<path d="M1296.11 582.775H1162.2V728.022H1296.11V582.775Z" stroke="#5A407B" stroke-width="1.5"/>
<path d="M1428.02 582.775H1294.11V728.022H1428.02V582.775Z" stroke="#5A407B" stroke-width="1.5"/>
<path d="M1559.94 582.775H1426.03V728.022H1559.94V582.775Z" stroke="#5A407B" stroke-width="1.5"/>
<path d="M1691.84 582.775H1557.93V728.022H1691.84V582.775Z" stroke="#5A407B" stroke-width="1.5"/>
<path d="M1823.75 582.775H1689.84V728.022H1823.75V582.775Z" stroke="#5A407B" stroke-width="1.5"/>
<path d="M1955.67 582.775H1821.76V728.022H1955.67V582.775Z" stroke="#5A407B" stroke-width="1.5"/>
<path d="M108.911 726.023H-25V871.27H108.911V726.023Z" stroke="#5A407B" stroke-width="1.5"/>
<path d="M240.822 726.023H106.911V871.27H240.822V726.023Z" stroke="#5A407B" stroke-width="1.5"/>
<path d="M372.733 726.023H238.823V871.27H372.733V726.023Z" stroke="#5A407B" stroke-width="1.5"/>
<path d="M504.644 726.023H370.733V871.27H504.644V726.023Z" stroke="#5A407B" stroke-width="1.5"/>
<path d="M636.555 726.023H502.644V871.27H636.555V726.023Z" stroke="#5A407B" stroke-width="1.5"/>
<path d="M768.467 726.023H634.556V871.27H768.467V726.023Z" stroke="#5A407B" stroke-width="1.5"/>
<path d="M900.378 726.023H766.467V871.27H900.378V726.023Z" stroke="#5A407B" stroke-width="1.5"/>
<path d="M1032.29 726.023H898.377V871.27H1032.29V726.023Z" stroke="#5A407B" stroke-width="1.5"/>
<path d="M1164.2 726.023H1030.29V871.27H1164.2V726.023Z" stroke="#5A407B" stroke-width="1.5"/>
<path d="M1296.11 726.023H1162.2V871.27H1296.11V726.023Z" stroke="#5A407B" stroke-width="1.5"/>
<path d="M1428.02 726.023H1294.11V871.27H1428.02V726.023Z" stroke="#5A407B" stroke-width="1.5"/>
<path d="M1559.94 726.023H1426.03V871.27H1559.94V726.023Z" stroke="#5A407B" stroke-width="1.5"/>
<path d="M1691.84 726.023H1557.93V871.27H1691.84V726.023Z" stroke="#5A407B" stroke-width="1.5"/>
<path d="M1823.75 726.023H1689.84V871.27H1823.75V726.023Z" stroke="#5A407B" stroke-width="1.5"/>
<path d="M1955.67 726.023H1821.76V871.27H1955.67V726.023Z" stroke="#5A407B" stroke-width="1.5"/>
<path d="M108.911 869.269H-25V1014.52H108.911V869.269Z" stroke="#5A407B" stroke-width="1.5"/>
<path d="M240.822 869.269H106.911V1014.52H240.822V869.269Z" stroke="#5A407B" stroke-width="1.5"/>
<path d="M372.733 869.269H238.823V1014.52H372.733V869.269Z" stroke="#5A407B" stroke-width="1.5"/>
<path d="M504.644 869.269H370.733V1014.52H504.644V869.269Z" stroke="#5A407B" stroke-width="1.5"/>
<path d="M636.555 869.269H502.644V1014.52H636.555V869.269Z" stroke="#5A407B" stroke-width="1.5"/>
<path d="M768.467 869.269H634.556V1014.52H768.467V869.269Z" stroke="#5A407B" stroke-width="1.5"/>
<path d="M900.378 869.269H766.467V1014.52H900.378V869.269Z" stroke="#5A407B" stroke-width="1.5"/>
<path d="M1032.29 869.269H898.377V1014.52H1032.29V869.269Z" stroke="#5A407B" stroke-width="1.5"/>
<path d="M1164.2 869.269H1030.29V1014.52H1164.2V869.269Z" stroke="#5A407B" stroke-width="1.5"/>
<path d="M1296.11 869.269H1162.2V1014.52H1296.11V869.269Z" stroke="#5A407B" stroke-width="1.5"/>
<path d="M1428.02 869.269H1294.11V1014.52H1428.02V869.269Z" stroke="#5A407B" stroke-width="1.5"/>
<path d="M1559.94 869.269H1426.03V1014.52H1559.94V869.269Z" stroke="#5A407B" stroke-width="1.5"/>
<path d="M1691.84 869.269H1557.93V1014.52H1691.84V869.269Z" stroke="#5A407B" stroke-width="1.5"/>
<path d="M1823.75 869.269H1689.84V1014.52H1823.75V869.269Z" stroke="#5A407B" stroke-width="1.5"/>
<path d="M1955.67 869.269H1821.76V1014.52H1955.67V869.269Z" stroke="#5A407B" stroke-width="1.5"/>
<path d="M108.911 1012.52H-25V1157.76H108.911V1012.52Z" stroke="#5A407B" stroke-width="1.5"/>
<path d="M240.822 1012.52H106.911V1157.76H240.822V1012.52Z" stroke="#5A407B" stroke-width="1.5"/>
<path d="M372.733 1012.52H238.823V1157.76H372.733V1012.52Z" stroke="#5A407B" stroke-width="1.5"/>
<path d="M504.644 1012.52H370.733V1157.76H504.644V1012.52Z" stroke="#5A407B" stroke-width="1.5"/>
<path d="M636.555 1012.52H502.644V1157.76H636.555V1012.52Z" stroke="#5A407B" stroke-width="1.5"/>
<path d="M768.467 1012.52H634.556V1157.76H768.467V1012.52Z" stroke="#5A407B" stroke-width="1.5"/>
<path d="M900.378 1012.52H766.467V1157.76H900.378V1012.52Z" stroke="#5A407B" stroke-width="1.5"/>
<path d="M1032.29 1012.52H898.377V1157.76H1032.29V1012.52Z" stroke="#5A407B" stroke-width="1.5"/>
<path d="M1164.2 1012.52H1030.29V1157.76H1164.2V1012.52Z" stroke="#5A407B" stroke-width="1.5"/>
<path d="M1296.11 1012.52H1162.2V1157.76H1296.11V1012.52Z" stroke="#5A407B" stroke-width="1.5"/>
<path d="M1428.02 1012.52H1294.11V1157.76H1428.02V1012.52Z" stroke="#5A407B" stroke-width="1.5"/>
<path d="M1559.94 1012.52H1426.03V1157.76H1559.94V1012.52Z" stroke="#5A407B" stroke-width="1.5"/>
<path d="M1691.84 1012.52H1557.93V1157.76H1691.84V1012.52Z" stroke="#5A407B" stroke-width="1.5"/>
<path d="M1823.75 1012.52H1689.84V1157.76H1823.75V1012.52Z" stroke="#5A407B" stroke-width="1.5"/>
<path d="M1823.75 1012.52H1689.84V1157.76H1823.75V1012.52Z" stroke="#5A407B" stroke-width="1.5"/>
<path d="M1955.67 1012.52H1821.76V1157.76H1955.67V1012.52Z" stroke="#5A407B" stroke-width="1.5"/>
<path d="M108.911 1155.76H-25V1301.01H108.911V1155.76Z" stroke="#5A407B" stroke-width="1.5"/>
<path d="M240.822 1155.76H106.911V1301.01H240.822V1155.76Z" stroke="#5A407B" stroke-width="1.5"/>
<path d="M372.733 1155.76H238.823V1301.01H372.733V1155.76Z" stroke="#5A407B" stroke-width="1.5"/>
<path d="M504.644 1155.76H370.733V1301.01H504.644V1155.76Z" stroke="#5A407B" stroke-width="1.5"/>
<path d="M636.555 1155.76H502.644V1301.01H636.555V1155.76Z" stroke="#5A407B" stroke-width="1.5"/>
<path d="M768.467 1155.76H634.556V1301.01H768.467V1155.76Z" stroke="#5A407B" stroke-width="1.5"/>
<path d="M900.378 1155.76H766.467V1301.01H900.378V1155.76Z" stroke="#5A407B" stroke-width="1.5"/>
<path d="M1032.29 1155.76H898.377V1301.01H1032.29V1155.76Z" stroke="#5A407B" stroke-width="1.5"/>
<path d="M1164.2 1155.76H1030.29V1301.01H1164.2V1155.76Z" stroke="#5A407B" stroke-width="1.5"/>
<path d="M1296.11 1155.76H1162.2V1301.01H1296.11V1155.76Z" stroke="#5A407B" stroke-width="1.5"/>
<path d="M1428.02 1155.76H1294.11V1301.01H1428.02V1155.76Z" stroke="#5A407B" stroke-width="1.5"/>
<path d="M1559.94 1155.76H1426.03V1301.01H1559.94V1155.76Z" stroke="#5A407B" stroke-width="1.5"/>
<path d="M1691.84 1155.76H1557.93V1301.01H1691.84V1155.76Z" stroke="#5A407B" stroke-width="1.5"/>
<path d="M1823.75 1155.76H1689.84V1301.01H1823.75V1155.76Z" stroke="#5A407B" stroke-width="1.5"/>
<path d="M1955.67 1155.76H1821.76V1301.01H1955.67V1155.76Z" stroke="#5A407B" stroke-width="1.5"/>
<path d="M108.911 1299.01H-25V1444.26H108.911V1299.01Z" stroke="#5A407B" stroke-width="1.5"/>
<path d="M240.822 1299.01H106.911V1444.26H240.822V1299.01Z" stroke="#5A407B" stroke-width="1.5"/>
<path d="M372.733 1299.01H238.823V1444.26H372.733V1299.01Z" stroke="#5A407B" stroke-width="1.5"/>
<path d="M504.644 1299.01H370.733V1444.26H504.644V1299.01Z" stroke="#5A407B" stroke-width="1.5"/>
<path d="M636.555 1299.01H502.644V1444.26H636.555V1299.01Z" stroke="#5A407B" stroke-width="1.5"/>
<path d="M768.467 1299.01H634.556V1444.26H768.467V1299.01Z" stroke="#5A407B" stroke-width="1.5"/>
<path d="M900.378 1299.01H766.467V1444.26H900.378V1299.01Z" stroke="#5A407B" stroke-width="1.5"/>
<path d="M1032.29 1299.01H898.377V1444.26H1032.29V1299.01Z" stroke="#5A407B" stroke-width="1.5"/>
<path d="M1164.2 1299.01H1030.29V1444.26H1164.2V1299.01Z" stroke="#5A407B" stroke-width="1.5"/>
<path d="M1296.11 1299.01H1162.2V1444.26H1296.11V1299.01Z" stroke="#5A407B" stroke-width="1.5"/>
<path d="M1428.02 1299.01H1294.11V1444.26H1428.02V1299.01Z" stroke="#5A407B" stroke-width="1.5"/>
<path d="M1559.94 1299.01H1426.03V1444.26H1559.94V1299.01Z" stroke="#5A407B" stroke-width="1.5"/>
<path d="M1691.84 1299.01H1557.93V1444.26H1691.84V1299.01Z" stroke="#5A407B" stroke-width="1.5"/>
<path d="M1823.75 1299.01H1689.84V1444.26H1823.75V1299.01Z" stroke="#5A407B" stroke-width="1.5"/>
<path d="M1955.67 1299.01H1821.76V1444.26H1955.67V1299.01Z" stroke="#5A407B" stroke-width="1.5"/>
<path d="M108.911 1442.26H-25V1587.51H108.911V1442.26Z" stroke="#5A407B" stroke-width="1.5"/>
<path d="M240.822 1442.26H106.911V1587.51H240.822V1442.26Z" stroke="#5A407B" stroke-width="1.5"/>
<path d="M504.644 1442.26H370.733V1587.51H504.644V1442.26Z" stroke="#5A407B" stroke-width="1.5"/>
<path d="M636.555 1442.26H502.644V1587.51H636.555V1442.26Z" stroke="#5A407B" stroke-width="1.5"/>
<path d="M768.467 1442.26H634.556V1587.51H768.467V1442.26Z" stroke="#5A407B" stroke-width="1.5"/>
<path d="M900.378 1442.26H766.467V1587.51H900.378V1442.26Z" stroke="#5A407B" stroke-width="1.5"/>
<path d="M1032.29 1442.26H898.377V1587.51H1032.29V1442.26Z" stroke="#5A407B" stroke-width="1.5"/>
<path d="M1164.2 1442.26H1030.29V1587.51H1164.2V1442.26Z" stroke="#5A407B" stroke-width="1.5"/>
<path d="M372.733 1442.26H238.823V1587.51H372.733V1442.26Z" stroke="#5A407B" stroke-width="1.5"/>
<path d="M1296.11 1442.26H1162.2V1587.51H1296.11V1442.26Z" stroke="#5A407B" stroke-width="1.5"/>
<path d="M1428.02 1442.26H1294.11V1587.51H1428.02V1442.26Z" stroke="#5A407B" stroke-width="1.5"/>
<path d="M1559.94 1442.26H1426.03V1587.51H1559.94V1442.26Z" stroke="#5A407B" stroke-width="1.5"/>
<path d="M1691.84 1442.26H1557.93V1587.51H1691.84V1442.26Z" stroke="#5A407B" stroke-width="1.5"/>
<path d="M1823.75 1442.26H1689.84V1587.51H1823.75V1442.26Z" stroke="#5A407B" stroke-width="1.5"/>
<path d="M1955.67 1442.26H1821.76V1587.51H1955.67V1442.26Z" stroke="#5A407B" stroke-width="1.5"/>
<path d="M108.911 1585.5H-25V1730.75H108.911V1585.5Z" stroke="#5A407B" stroke-width="1.5"/>
<path d="M240.822 1585.5H106.911V1730.75H240.822V1585.5Z" stroke="#5A407B" stroke-width="1.5"/>
<path d="M372.733 1585.5H238.823V1730.75H372.733V1585.5Z" stroke="#5A407B" stroke-width="1.5"/>
<path d="M504.644 1585.5H370.733V1730.75H504.644V1585.5Z" stroke="#5A407B" stroke-width="1.5"/>
<path d="M636.555 1585.5H502.644V1730.75H636.555V1585.5Z" stroke="#5A407B" stroke-width="1.5"/>
<path d="M768.467 1585.5H634.556V1730.75H768.467V1585.5Z" stroke="#5A407B" stroke-width="1.5"/>
<path d="M900.378 1585.5H766.467V1730.75H900.378V1585.5Z" stroke="#5A407B" stroke-width="1.5"/>
<path d="M1164.2 1585.5H1030.29V1730.75H1164.2V1585.5Z" stroke="#5A407B" stroke-width="1.5"/>
<path d="M1296.11 1585.5H1162.2V1730.75H1296.11V1585.5Z" stroke="#5A407B" stroke-width="1.5"/>
<path d="M1428.02 1585.5H1294.11V1730.75H1428.02V1585.5Z" stroke="#5A407B" stroke-width="1.5"/>
<path d="M1032.29 1585.5H898.377V1730.75H1032.29V1585.5Z" stroke="#5A407B" stroke-width="1.5"/>
<path d="M1559.94 1585.5H1426.03V1730.75H1559.94V1585.5Z" stroke="#5A407B" stroke-width="1.5"/>
<path d="M1691.84 1585.5H1557.93V1730.75H1691.84V1585.5Z" stroke="#5A407B" stroke-width="1.5"/>
<path d="M1823.75 1585.5H1689.84V1730.75H1823.75V1585.5Z" stroke="#5A407B" stroke-width="1.5"/>
<path d="M1823.75 1585.5H1689.84V1730.75H1823.75V1585.5Z" stroke="#5A407B" stroke-width="1.5"/>
<path d="M1955.67 1585.5H1821.76V1730.75H1955.67V1585.5Z" stroke="#5A407B" stroke-width="1.5"/>
<path d="M108.911 1728.76H-25V1874.01H108.911V1728.76Z" stroke="#5A407B" stroke-width="1.5"/>
<path d="M240.822 1728.76H106.911V1874.01H240.822V1728.76Z" stroke="#5A407B" stroke-width="1.5"/>
<path d="M372.733 1728.76H238.823V1874.01H372.733V1728.76Z" stroke="#5A407B" stroke-width="1.5"/>
<path d="M504.644 1728.76H370.733V1874.01H504.644V1728.76Z" stroke="#5A407B" stroke-width="1.5"/>
<path d="M636.555 1728.76H502.644V1874.01H636.555V1728.76Z" stroke="#5A407B" stroke-width="1.5"/>
<path d="M768.467 1728.76H634.556V1874.01H768.467V1728.76Z" stroke="#5A407B" stroke-width="1.5"/>
<path d="M900.378 1728.76H766.467V1874.01H900.378V1728.76Z" stroke="#5A407B" stroke-width="1.5"/>
<path d="M1032.29 1728.76H898.377V1874.01H1032.29V1728.76Z" stroke="#5A407B" stroke-width="1.5"/>
<path d="M1164.2 1728.76H1030.29V1874.01H1164.2V1728.76Z" stroke="#5A407B" stroke-width="1.5"/>
<path d="M1296.11 1728.76H1162.2V1874.01H1296.11V1728.76Z" stroke="#5A407B" stroke-width="1.5"/>
<path d="M1428.02 1728.76H1294.11V1874.01H1428.02V1728.76Z" stroke="#5A407B" stroke-width="1.5"/>
<path d="M1559.94 1728.76H1426.03V1874.01H1559.94V1728.76Z" stroke="#5A407B" stroke-width="1.5"/>
<path d="M1691.84 1728.76H1557.93V1874.01H1691.84V1728.76Z" stroke="#5A407B" stroke-width="1.5"/>
<path d="M1823.75 1728.76H1689.84V1874.01H1823.75V1728.76Z" stroke="#5A407B" stroke-width="1.5"/>
<path d="M1955.67 1728.76H1821.76V1874.01H1955.67V1728.76Z" stroke="#5A407B" stroke-width="1.5"/>
</g>
</g>
</g>
<defs>
<linearGradient id="paint0_linear_6_207" x1="960" y1="0" x2="960" y2="326.609" gradientUnits="userSpaceOnUse">
<stop stop-color="#A87CE1"/>
<stop offset="1" stop-color="#121212"/>
</linearGradient>
<linearGradient id="paint1_linear_6_207" x1="900" y1="18.6633" x2="900" y2="312.611" gradientUnits="userSpaceOnUse">
<stop stop-color="white"/>
<stop offset="1" stop-color="#513772"/>
</linearGradient>
<clipPath id="clip0_6_207">
<rect width="1920" height="1873" fill="white"/>
</clipPath>
</defs>
</svg>
