<svg width="1440" height="1324" viewBox="0 0 1440 1324" fill="none" xmlns="http://www.w3.org/2000/svg">
<g clip-path="url(#clip0_2_1000)">
<rect width="1440" height="300" fill="url(#paint0_linear_2_1000)"/>
<path d="M1466 900V-600M1565 900V-600M1664 900V-600M1763 900V-600H-217V900M1070 900V-600M1169 900V-600M1268 900V-600M1367 900V-600M674 900V-600M773 900V-600M872 900V-600M971 900V-600M278 900V-600M377 900V-600M476 900V-600M575 900V-600M179 900V-600M-118 900V-600M-19 900V-600M80 900V-600M1763 224H-217M-217 327H1763M1763 430H-217M-217 533H1763M1763 636H-217M-217 739H1763M1763 842H-217M-217 -497H1763M1763 -394H-217M-217 -291H1763M1763 -188H-217M-217 -85H1763M1763 18H-217M-217 121H1763" stroke="url(#paint1_linear_2_1000)" stroke-width="3"/>
</g>
<g clip-path="url(#clip1_2_1000)">
<rect width="1440" height="1024" transform="translate(0 300)" fill="#A87CE1"/>
<path d="M1462.5 1333.96H-14V284H1462.13V1333.96H1462.5ZM-10.2809 1331.34H1458.41V286.617H-10.2809V1331.34Z" fill="white"/>
<path d="M1183.19 358.063C1136.7 358.063 1089.84 357.54 1043.72 356.493C997.236 355.184 950.746 350.997 905.373 347.071C851.445 342.361 796.03 337.388 740.243 337.388C740.243 337.388 740.243 337.388 739.871 337.388C677.761 337.388 615.28 342.361 554.658 347.071C498.498 351.52 440.48 355.969 382.833 356.755C295.805 357.801 207.661 357.278 122.121 357.016C77.8633 356.755 32.4898 356.755 -12.5118 356.755V354.137C32.4898 354.137 77.8633 354.399 122.121 354.399C207.661 354.661 296.177 355.184 382.833 354.137C440.48 353.614 498.127 348.903 554.286 344.454C614.908 339.744 677.389 334.771 739.871 334.771H740.243C796.03 334.771 851.817 339.744 905.745 344.454C950.746 348.38 997.236 352.567 1043.72 353.876C1135.96 356.231 1230.43 355.446 1321.54 354.661C1366.92 354.137 1414.15 353.876 1459.9 353.876V356.493C1413.78 356.493 1366.92 357.016 1321.54 357.278C1276.54 357.54 1230.05 358.063 1183.19 358.063Z" fill="white"/>
<path d="M1202.53 431.34C1148.98 431.34 1096.16 429.508 1046.33 423.227C1005.42 418.255 966.366 406.74 928.803 395.748C879.71 381.354 829.13 366.437 773.714 366.176C700.819 365.652 629.412 381.093 559.864 396.01C502.961 408.31 444.198 420.872 384.692 424.797C294.689 430.555 200.966 428.984 110.591 427.676C70.0526 427.153 28.3981 426.367 -12.1405 426.367V423.75C28.3981 423.75 70.0526 424.536 110.591 425.059C200.966 426.629 294.317 427.938 384.32 422.18C443.455 418.255 501.845 405.693 558.748 393.393C628.296 378.476 700.447 363.035 773.714 363.559C829.873 364.082 881.198 378.999 930.29 393.393C967.482 404.384 1006.16 415.638 1046.7 420.61C1137.45 431.601 1237.49 428.723 1334.56 426.106C1378.45 424.797 1419.73 423.75 1460.27 423.75V426.367C1419.73 426.367 1378.45 427.676 1334.56 428.723C1291.05 430.031 1246.79 431.34 1202.53 431.34Z" fill="white"/>
<path d="M232.579 500.168C190.925 500.168 149.27 499.122 108.36 498.075C68.565 497.028 27.2825 495.981 -12.1404 495.981V493.364C27.2825 493.364 68.565 494.411 108.36 495.458C200.595 497.813 296.177 499.907 385.064 490.747C447.174 484.204 508.54 464.315 568.046 444.949C643.917 420.349 722.019 395.225 803.096 396.534C861.115 397.58 904.628 421.396 946.655 444.687C978.268 461.96 1010.62 479.755 1048.93 488.13C1092.45 497.551 1141.91 495.981 1189.89 494.411C1207.37 493.887 1224.1 493.364 1240.47 493.364H1459.9V495.981H1240.47C1224.1 495.981 1207.74 496.504 1189.89 497.028C1141.91 498.598 1092.07 500.168 1047.82 490.485C1008.76 482.111 976.036 464.053 944.051 446.781C902.397 424.013 859.255 400.459 802.724 399.412C722.762 397.842 644.66 422.966 569.162 447.566C509.284 466.932 447.546 486.821 385.064 493.364C336.343 498.336 284.647 500.168 232.579 500.168Z" fill="white"/>
<path d="M208.405 569.518C166.75 569.518 124.352 568.471 82.6976 567.686C49.9692 566.901 18.7284 566.378 -12.1405 566.116V563.499C18.7284 563.761 49.9692 564.546 82.6976 565.069C183.486 567.163 287.622 569.518 382.461 558.527C446.058 551.199 508.54 529.216 569.534 508.018C646.892 481.062 726.853 453.322 809.79 454.368C870.412 455.154 910.579 482.371 949.258 508.803C978.267 528.431 1008.02 549.105 1046.7 558.527C1089.84 569.256 1141.17 567.163 1190.63 565.331C1208.11 564.546 1224.47 564.022 1240.1 564.022H1244.19C1315.22 563.499 1388.49 563.237 1460.64 563.761V566.378C1388.49 565.854 1315.22 566.378 1244.56 566.639H1240.47C1224.85 566.639 1208.48 567.424 1191 567.948C1141.17 569.78 1089.84 571.873 1045.96 561.144C1006.53 551.461 976.408 530.786 947.027 510.896C907.232 483.679 869.297 458.032 810.162 457.247C727.969 456.2 648.379 483.941 571.393 510.635C510.399 531.833 447.546 553.816 383.576 561.405C327.417 567.424 268.283 569.518 208.405 569.518Z" fill="white"/>
<path d="M1086.12 653.002C1059.72 653.002 1033.68 651.17 1010.25 645.413C972.689 636.515 944.424 617.672 917.274 599.615C880.455 575.276 845.867 552.508 789.708 550.938C704.167 548.582 615.28 564.023 529.739 578.678C470.233 588.885 408.495 599.615 348.989 604.064C302.872 607.466 256.01 612.7 210.637 617.934C137.742 626.047 62.615 634.421 -11.3959 635.73V633.113C62.2431 631.804 137.37 623.43 210.265 615.317C255.639 610.345 302.872 605.111 348.617 601.447C407.752 596.998 469.489 586.53 528.996 576.323C615.28 561.668 704.167 546.227 790.08 548.583C847.354 550.153 884.174 574.491 919.878 598.045C947.027 615.84 974.921 634.421 1011.74 643.058C1061.2 654.834 1121.83 650.124 1175.38 645.675C1191 644.366 1206.25 643.319 1220.38 642.534L1238.24 641.487C1311.13 637.562 1386.26 633.375 1461.01 633.113V635.73C1386.63 635.992 1311.5 640.179 1238.61 644.104L1220.76 645.151C1206.25 645.936 1191.37 647.245 1175.75 648.292C1146.75 650.647 1115.88 653.002 1086.12 653.002Z" fill="white"/>
<path d="M1018.06 746.692C996.12 746.692 974.549 744.861 954.465 740.673C918.39 732.822 892.728 717.12 868.181 701.941C836.568 682.575 806.443 664.517 756.607 660.854C735.408 659.283 713.837 657.713 692.266 656.143C560.98 646.46 425.603 636.253 294.317 634.422C229.976 633.375 179.396 651.432 125.84 670.275C83.4419 685.192 39.556 700.633 -11.3963 705.867L-11.7682 703.25C38.4402 698.277 82.3261 682.837 124.352 667.92C176.049 649.6 229.232 630.758 294.317 631.805C425.603 633.636 561.352 643.843 692.638 653.526C714.209 655.096 735.78 656.666 756.979 658.237C807.931 661.9 839.916 681.267 870.785 700.109C895.331 715.026 920.621 730.467 955.953 738.318C1011.74 750.618 1080.17 741.458 1140.42 733.346C1156.79 730.99 1172.41 728.897 1187.66 727.326C1197.7 726.28 1207.74 725.233 1217.78 723.924C1297 715.026 1378.82 706.128 1461.01 703.25V705.867C1379.19 708.745 1297.37 717.643 1218.15 726.541C1208.11 727.588 1198.07 728.897 1188.03 729.943C1173.15 731.514 1157.53 733.607 1141.17 735.963C1101.37 740.935 1058.6 746.692 1018.06 746.692Z" fill="white"/>
<path d="M963.39 840.121C944.05 840.121 925.083 838.551 907.231 834.887C874.131 828.083 850.328 815.259 827.269 802.698C799.004 787.257 771.854 772.602 728.34 768.153C648.007 760.04 570.277 740.15 494.778 721.046C415.56 700.895 333.739 679.959 249.315 673.154C180.882 667.397 142.575 694.091 102.036 722.355C70.0518 744.599 37.3233 767.368 -12.1413 775.219L-12.8851 772.602C35.4638 765.012 68.1922 742.506 99.8049 720.523C141.087 691.997 179.767 664.78 250.058 670.537C334.855 677.603 416.676 698.278 496.266 718.691C571.392 737.795 649.122 757.685 729.084 765.536C773.714 769.985 801.979 785.687 829.501 800.604C852.188 812.904 875.618 825.989 908.347 832.532C970.084 845.094 1044.47 831.747 1110.3 819.708C1127.4 816.568 1143.77 813.689 1159.39 811.334C1173.15 809.24 1186.91 807.147 1200.3 805.053C1284.72 791.968 1371.75 778.359 1459.9 772.863L1460.27 775.48C1372.12 780.976 1285.1 794.585 1201.04 807.67C1187.28 809.764 1173.89 811.857 1160.13 813.951C1144.51 816.306 1128.15 819.185 1111.04 822.325C1063.81 830.962 1012.11 840.121 963.39 840.121Z" fill="white"/>
<path d="M963.018 910.518C944.423 910.518 925.827 909.21 907.975 906.069C875.246 900.312 848.097 889.32 821.319 878.852C790.078 866.29 757.721 853.205 716.439 849.28C636.105 841.429 560.235 818.922 486.968 797.201C411.469 774.694 332.995 751.664 250.802 744.86C182.37 739.364 144.063 765.534 103.152 793.275C71.1675 815.258 37.6953 837.765 -12.1413 845.092L-12.8851 842.475C35.8357 835.409 68.5642 812.903 100.549 791.443C141.831 763.441 180.882 736.747 251.174 742.505C334.111 749.047 412.585 772.339 488.455 794.845C561.723 816.567 637.221 839.073 717.183 846.663C759.209 850.588 791.938 863.935 823.55 876.497C849.956 886.965 877.106 897.957 909.091 903.452C973.804 914.706 1048.19 901.62 1113.64 890.105C1129.64 887.227 1144.51 884.61 1159.39 882.254C1173.15 880.161 1186.54 877.805 1200.3 875.712C1284.72 862.365 1371.75 848.233 1460.27 842.475L1460.64 845.092C1372.5 851.112 1285.47 864.982 1201.04 878.329C1187.28 880.422 1173.89 882.778 1160.13 884.871C1145.26 887.227 1130.38 889.844 1114.39 892.722C1066.41 901.359 1013.6 910.518 963.018 910.518Z" fill="white"/>
<path d="M989.054 959.459C976.037 959.459 963.02 959.197 950.003 958.674C900.91 956.58 851.445 952.655 803.096 948.729C760.326 945.327 716.068 941.663 672.183 939.569C601.147 936.167 536.434 915.493 474.324 895.342C417.049 877.022 357.915 858.18 294.317 852.684C230.72 847.188 177.908 864.722 121.749 883.303C79.7229 897.173 36.209 911.567 -12.1399 915.231L-12.5118 912.614C35.0932 908.95 78.6072 894.818 120.262 880.948C174.189 863.152 229.976 844.571 294.689 850.067C359.031 855.563 418.165 874.667 475.812 892.986C537.921 912.876 602.263 933.55 672.554 936.952C716.44 939.046 760.698 942.71 803.468 946.112C851.445 950.038 901.282 953.963 950.003 956.057C1050.79 960.244 1153.07 946.897 1252 934.074C1320.06 925.176 1390.72 916.016 1459.9 912.614L1460.27 915.231C1391.09 918.633 1320.8 927.793 1252.74 936.691C1166.46 947.682 1077.57 959.459 989.054 959.459Z" fill="white"/>
<path d="M640.57 1029.6C633.503 1029.6 626.437 1029.6 619.37 1029.33C563.583 1028.29 516.35 1011.01 470.233 994.527C430.81 980.395 390.271 965.478 344.526 961.029C276.465 954.225 206.546 963.123 138.857 971.759C89.3925 978.04 38.0683 984.321 -11.7682 984.844V982.227C38.0683 981.965 89.0206 975.423 138.485 969.142C206.546 960.506 276.837 951.608 345.27 958.412C391.387 962.861 432.298 977.778 472.092 992.172C517.838 1008.66 565.071 1025.67 619.742 1026.72C697.1 1028.29 776.69 1020.96 854.048 1013.89C902.397 1009.44 952.234 1005 1000.58 1002.64C1044.84 1000.55 1090.21 997.929 1133.73 995.574C1241.21 989.555 1352.04 983.536 1460.64 982.227V984.844C1352.04 986.153 1241.21 992.172 1133.73 998.191C1089.84 1000.55 1044.84 1003.16 1000.58 1005.26C952.234 1007.61 902.397 1012.06 854.42 1016.51C783.757 1023.05 711.233 1029.6 640.57 1029.6Z" fill="white"/>
<path d="M596.684 1111.77C592.965 1111.77 589.245 1111.77 585.898 1111.77C540.525 1111.25 505.565 1096.85 471.72 1082.98C443.083 1071.21 413.33 1059.17 377.626 1055.24C297.293 1046.87 211.008 1049.48 127.7 1052.36C81.5823 1053.93 33.6053 1055.5 -11.7682 1054.98V1052.36C33.6053 1052.89 81.2104 1051.32 127.328 1049.75C211.008 1047.13 297.293 1044.25 377.998 1052.63C414.446 1056.55 444.571 1068.85 473.58 1080.63C507.052 1094.24 541.64 1108.37 585.898 1109.15C675.158 1110.46 766.277 1095.54 854.42 1081.15C913.555 1071.47 974.921 1061.52 1034.43 1056.55C1140.05 1047.91 1251.62 1049.48 1359.11 1051.06C1392.58 1051.58 1426.8 1052.1 1460.27 1052.1V1054.72C1426.8 1054.46 1392.58 1053.93 1359.11 1053.67C1251.62 1052.1 1140.42 1050.53 1034.8 1059.17C975.292 1064.14 914.299 1074.09 855.164 1083.77C770.74 1097.38 682.968 1111.77 596.684 1111.77Z" fill="white"/>
<path d="M612.676 1177.46C608.213 1177.46 603.378 1177.46 598.915 1177.46C553.914 1176.67 515.607 1163.85 478.787 1151.29C447.918 1140.82 415.562 1129.83 379.486 1126.43C293.202 1117.79 200.223 1120.14 110.22 1122.5C69.6813 1123.55 27.6549 1124.59 -12.5118 1124.59V1121.98C27.6549 1121.98 69.3093 1120.93 109.848 1119.88C199.851 1117.53 292.83 1115.17 379.858 1123.81C416.677 1127.47 449.034 1138.46 480.275 1148.93C516.722 1161.23 554.658 1174.06 598.915 1174.84C686.315 1176.41 775.575 1162.28 862.231 1148.41C919.878 1139.25 979.384 1129.83 1037.4 1125.12C1135.22 1117.27 1237.49 1119.1 1336.42 1120.67C1377.33 1121.45 1419.36 1121.98 1460.27 1121.98V1124.59C1419.36 1124.59 1377.33 1123.81 1336.42 1123.29C1237.49 1121.72 1135.22 1119.88 1037.77 1127.73C980.128 1132.45 920.621 1141.87 862.975 1151.03C781.153 1163.85 696.357 1177.46 612.676 1177.46Z" fill="white"/>
<path d="M652.842 1226.92C650.983 1226.92 649.123 1226.92 647.264 1226.92C597.427 1226.66 549.078 1218.55 502.589 1210.69C463.538 1204.15 422.999 1197.35 381.717 1195.25C292.829 1190.8 200.966 1191.85 112.079 1193.16C71.1683 1193.68 29.142 1194.21 -12.1405 1194.21V1191.59C28.7701 1191.59 71.1683 1191.07 111.707 1190.54C200.595 1189.23 292.457 1187.93 381.717 1192.64C422.999 1194.73 463.91 1201.53 502.961 1208.08C549.45 1215.93 597.427 1224.04 646.892 1224.3C723.878 1224.83 801.608 1216.19 876.735 1208.08C930.29 1202.32 985.334 1196.3 1040.01 1193.42C1137.07 1188.45 1237.12 1189.5 1333.82 1190.8C1375.47 1191.33 1418.24 1191.85 1459.9 1191.85V1194.47C1417.87 1194.47 1375.1 1193.94 1333.45 1193.42C1236.75 1192.37 1137.07 1191.07 1040.01 1196.04C985.706 1198.92 930.29 1204.94 877.107 1210.69C804.212 1218.55 728.341 1226.92 652.842 1226.92Z" fill="white"/>
<path d="M693.381 1274.81C575.856 1274.81 456.472 1272.19 340.806 1269.31C225.141 1266.7 105.384 1263.82 -12.1405 1263.82V1261.2C105.756 1261.2 225.141 1263.82 341.178 1266.7C458.703 1269.31 579.947 1272.19 699.332 1272.19C824.667 1272.19 952.605 1269.31 1075.71 1266.7C1201.79 1264.08 1331.96 1261.2 1460.27 1261.2V1263.82C1331.96 1263.82 1201.79 1266.44 1075.71 1269.31C952.233 1271.93 824.667 1274.55 698.96 1274.81C697.472 1274.81 695.241 1274.81 693.381 1274.81Z" fill="white"/>
<path d="M1364.31 1332.65H1360.6C1360.6 1291.56 1360.6 1250.47 1360.97 1209.38C1360.97 1159.92 1361.34 1108.63 1360.97 1058.38C1360.97 1018.86 1355.02 978.823 1349.44 940.091C1343.86 901.097 1337.91 860.533 1337.91 820.492C1337.91 777.834 1343.86 734.915 1349.44 693.304C1355.02 654.049 1360.6 613.746 1360.97 573.706C1362.08 513.775 1361.34 452.798 1360.97 393.915C1360.6 358.323 1360.22 321.423 1360.22 285.308H1363.94C1363.94 321.423 1364.31 358.323 1364.69 393.915C1365.06 452.798 1365.8 513.775 1364.69 573.706C1363.94 613.746 1358.36 654.31 1353.16 693.566C1347.58 735.177 1341.63 778.096 1341.63 820.492C1341.63 860.533 1347.58 900.835 1353.16 939.829C1358.74 978.561 1364.69 1018.6 1364.69 1058.38C1364.69 1108.63 1364.69 1159.92 1364.69 1209.38C1364.31 1250.47 1364.31 1291.56 1364.31 1332.65Z" fill="white"/>
<path d="M1266.13 1332.65H1262.41C1262.41 1303.34 1263.15 1273.5 1264.27 1244.45C1266.13 1183.48 1267.99 1120.14 1261.67 1059.17C1258.32 1023.84 1241.95 990.601 1226.33 958.149C1208.85 922.034 1190.63 884.349 1190.26 844.308C1189.89 793.538 1208.48 743.552 1226.33 695.399C1240.84 656.143 1256.09 615.317 1260.92 574.492C1268.36 509.327 1266.5 441.808 1264.27 376.644C1263.15 346.548 1262.41 315.405 1262.41 285.047H1266.13C1266.13 315.405 1267.25 346.286 1267.99 376.382C1270.22 441.808 1272.08 509.327 1264.64 574.492C1259.81 615.579 1244.56 656.405 1230.05 695.922C1212.2 744.076 1193.61 793.538 1193.98 844.046C1194.35 883.825 1212.2 920.987 1229.68 957.102C1245.3 989.554 1261.67 1023.31 1265.01 1058.91C1270.96 1120.14 1269.1 1183.48 1267.62 1244.45C1266.87 1273.5 1266.13 1303.6 1266.13 1332.65Z" fill="white"/>
<path d="M1167.94 1332.65H1164.22C1164.22 1304.38 1165.71 1275.07 1167.2 1246.28C1170.55 1184 1173.89 1119.62 1162.37 1059.69C1155.67 1025.93 1129.64 997.665 1103.97 970.709C1074.97 939.828 1044.84 907.639 1044.47 867.075C1044.1 810.023 1074.97 755.327 1104.72 702.725C1127.78 661.375 1151.95 618.718 1160.88 575.537C1174.27 510.634 1170.55 441.544 1167.2 374.548C1165.71 344.976 1164.22 314.618 1164.22 285.569H1167.94C1167.94 314.618 1169.43 345.237 1170.92 374.548C1174.27 441.544 1177.61 511.158 1164.6 576.06C1155.67 619.765 1131.5 662.684 1108.07 704.033C1078.31 756.636 1047.82 811.07 1048.19 867.598C1048.56 907.639 1078.31 939.305 1106.95 969.924C1132.61 997.403 1159.39 1025.67 1166.08 1059.95C1177.61 1119.88 1174.27 1184.52 1170.92 1246.81C1169.43 1275.07 1167.94 1304.64 1167.94 1332.65Z" fill="white"/>
<path d="M1167.94 1332.65H1164.22C1164.22 1304.38 1165.71 1275.07 1167.2 1246.28C1170.55 1184 1173.89 1119.62 1162.37 1059.69C1155.67 1025.93 1129.64 997.666 1103.97 970.71C1074.97 939.829 1044.84 907.639 1044.47 867.075C1044.1 810.024 1074.97 755.328 1104.72 702.725C1127.78 661.376 1151.95 618.718 1160.88 575.537C1174.27 510.635 1170.55 441.545 1167.2 374.549C1165.71 344.976 1164.22 314.619 1164.22 285.57H1167.94C1167.94 314.619 1169.43 345.238 1170.92 374.549C1174.27 441.545 1177.61 511.158 1164.6 576.061C1155.67 619.765 1131.5 662.685 1108.07 704.034C1078.31 756.636 1047.82 811.071 1048.19 867.599C1048.56 907.639 1078.31 939.306 1106.95 969.925C1132.61 997.404 1159.39 1025.67 1166.08 1059.95C1177.61 1119.88 1174.27 1184.52 1170.92 1246.81C1169.43 1275.07 1167.94 1304.64 1167.94 1332.65Z" fill="white"/>
<path d="M1069.76 1332.65H1066.04C1066.41 1309.35 1067.9 1285.54 1069.39 1260.15C1073.48 1192.37 1077.94 1122.5 1061.95 1061C1053.02 1027.24 1021.41 1001.07 990.912 975.944C955.58 946.895 919.133 917.061 918.389 875.188C916.901 814.996 955.952 757.683 993.516 702.202C1021.78 660.329 1051.16 617.148 1062.69 573.444C1078.68 511.42 1074.22 443.9 1070.13 378.736C1067.9 347.593 1066.04 315.666 1066.04 285.308H1069.76C1069.39 315.666 1071.62 347.593 1073.85 378.736C1078.31 444.162 1082.78 511.943 1066.41 574.229C1054.88 618.195 1025.5 661.638 996.863 703.511C959.299 758.73 920.62 815.781 922.108 875.188C923.224 916.014 957.44 944.278 993.888 974.374C1024.76 999.759 1056.74 1026.19 1065.67 1060.74C1081.66 1122.5 1077.57 1192.63 1073.48 1260.68C1071.62 1285.54 1070.13 1309.62 1069.76 1332.65Z" fill="white"/>
<path d="M967.854 1332.65C967.11 1268 955.209 1200.49 943.68 1135.58C939.961 1115.43 936.614 1094.5 933.266 1074.34C928.06 1041.37 911.695 1009.44 896.075 978.299C876.735 939.828 856.652 899.788 857.024 858.177C857.768 796.938 891.984 738.055 924.712 681.265C950.002 637.822 976.036 592.547 986.822 547.011C999.467 493.885 989.425 438.142 980.127 384.493C974.549 351.78 968.598 318.02 967.482 285.569H971.202C971.945 318.02 977.896 351.78 983.475 384.231C993.145 438.142 1002.81 494.147 990.169 547.534C979.384 593.594 952.978 638.607 927.688 682.312C894.959 738.84 861.115 797.461 859.999 858.177C859.255 899.526 879.339 939.043 898.678 977.514C914.299 1008.66 930.663 1040.85 935.87 1074.08C939.217 1094.23 942.936 1115.17 946.283 1135.32C957.813 1200.49 969.714 1267.74 970.458 1332.65H967.854Z" fill="white"/>
<path d="M869.67 1332.91C864.835 1294.44 846.612 1258.32 829.132 1223.52C808.676 1182.69 787.105 1140.3 787.477 1094.5C787.477 1037.97 796.031 980.132 804.213 924.128C808.676 893.77 813.139 862.366 816.115 831.746C822.437 771.816 847.727 713.456 871.902 657.452C893.101 608.251 915.416 557.481 924.714 505.663C932.896 460.127 915.044 417.469 898.308 376.382C886.406 347.071 873.761 316.975 870.042 285.309L873.761 285.047C877.48 316.452 889.754 346.286 901.655 375.597C918.763 416.946 936.615 459.865 928.433 505.925C919.135 558.004 897.192 608.775 875.621 657.975C851.075 713.98 826.156 772.078 819.834 831.746C816.858 862.366 812.024 893.77 807.932 924.128C799.75 980.132 791.568 1037.97 791.196 1094.24C791.196 1139.77 812.395 1181.64 832.851 1222.47C850.703 1257.54 868.926 1293.65 873.761 1332.39L869.67 1332.91Z" fill="white"/>
<path d="M771.483 1332.91C762.929 1296.79 734.664 1265.65 707.514 1235.82C673.67 1198.39 638.71 1159.92 643.173 1112.03C648.008 1058.12 676.273 1006.3 703.795 956.054C729.085 909.732 755.491 861.579 762.929 812.117C771.483 756.374 789.707 700.631 807.187 646.72C825.783 589.93 844.75 531.309 852.561 472.425C858.511 429.244 836.196 398.887 813.138 366.697C795.658 342.359 777.434 317.235 771.855 285.831L775.574 285.569C781.153 316.712 799.005 341.573 816.485 365.65C839.915 398.101 862.23 428.721 856.28 472.949C848.469 531.832 829.13 590.715 810.906 647.767C793.426 701.416 775.574 757.159 766.648 812.902C758.838 862.887 732.432 911.041 707.142 957.624C679.62 1007.61 651.355 1059.17 646.892 1112.81C642.801 1159.92 675.901 1196.56 710.861 1235.03C738.383 1265.13 766.648 1296.53 775.202 1333.17L771.483 1332.91Z" fill="white"/>
<path d="M673.298 1332.91C664.372 1296.79 636.107 1265.91 608.957 1236.08C574.741 1198.92 539.781 1160.45 543.872 1112.55C548.335 1057.07 576.973 1003.16 604.122 951.083C629.412 902.93 655.447 853.468 663.257 802.435C671.439 747.739 689.663 693.567 707.143 640.964C725.366 586.268 744.334 530.002 751.772 473.212C757.723 430.031 736.152 399.412 713.837 366.96C696.729 342.36 678.877 316.975 673.67 285.309L677.389 285.047C682.596 316.19 700.076 341.313 717.184 365.913C739.871 398.626 761.442 429.508 755.491 473.474C747.681 530.263 729.086 586.791 710.862 641.488C693.382 693.828 675.158 748.263 666.976 802.697C659.166 853.991 633.132 903.976 607.841 952.13C580.692 1003.95 552.426 1057.86 547.591 1112.82C543.5 1159.92 576.973 1196.3 612.304 1234.77C639.826 1264.87 668.463 1296.01 677.389 1332.65L673.298 1332.91Z" fill="white"/>
<path d="M575.113 1332.91C569.162 1294.7 550.195 1259.11 531.599 1224.82C509.656 1184 486.969 1142.13 486.597 1095.8C485.853 1018.86 495.523 939.306 504.821 862.103C508.54 830.96 512.631 798.771 515.607 767.628C520.441 717.643 545.732 671.059 570.278 626.308C591.477 587.576 613.048 547.535 621.602 505.401C630.9 460.649 614.908 417.992 599.659 376.643C588.874 347.332 577.716 316.712 575.113 285.57L578.832 285.308C581.435 316.451 592.593 346.547 603.378 375.857C618.627 417.468 634.619 460.388 625.321 505.663C616.767 548.059 594.824 588.361 573.625 627.093C549.451 671.844 524.161 718.166 519.326 767.89C516.35 799.032 512.259 831.222 508.54 862.365C499.242 939.306 489.573 1018.86 490.316 1095.8C490.688 1141.6 513.375 1183.48 535.318 1223.78C553.914 1258.32 573.253 1294.18 579.204 1332.65L575.113 1332.91Z" fill="white"/>
<path d="M476.928 1332.65C475.44 1281.09 465.77 1229.01 456.472 1178.5C450.15 1143.96 443.455 1108.1 439.364 1072.77C434.158 1025.14 418.909 975.682 404.404 927.791C384.321 861.58 363.494 793.275 367.213 727.326C369.816 685.715 401.057 654.049 431.554 623.168C456.1 598.567 481.019 573.182 491.432 542.563C508.912 492.054 498.499 435.003 488.457 379.783C482.506 346.808 476.928 315.404 476.556 285.308H480.275C480.647 315.404 486.226 346.547 492.176 379.521C502.218 435.003 512.631 492.054 495.151 543.348C484.366 574.229 459.076 600.138 434.529 624.738C404.404 655.095 373.164 686.762 370.932 727.587C367.213 793.275 387.668 861.58 407.752 927.529C422.256 975.421 437.505 1024.88 442.712 1072.77C446.803 1107.84 453.497 1143.7 459.82 1178.24C469.117 1228.75 479.159 1281.09 480.275 1332.65H476.928Z" fill="white"/>
<path d="M382.46 1332.65H378.741C379.112 1313.02 379.856 1292.87 380.228 1273.24C382.46 1201.79 384.691 1127.99 374.278 1058.12C366.467 1004.73 336.342 950.821 306.961 898.48C270.885 834.363 233.694 767.89 237.413 701.155C239.645 662.161 274.233 642.795 307.705 623.953C334.483 608.774 362.376 593.333 374.65 567.425C386.179 542.824 383.575 510.635 381.344 482.371C380.6 471.379 379.484 461.173 379.484 451.752C379.484 441.022 379.112 430.292 379.112 419.824C378.741 375.596 377.997 330.059 378.741 285.308H382.46C382.088 330.059 382.46 375.857 382.832 419.824C382.832 430.554 383.204 441.283 383.204 451.752C383.204 461.173 384.319 471.379 385.063 482.371C387.295 510.897 390.27 543.61 378.369 568.471C365.724 595.165 337.458 610.867 310.308 626.046C276.092 645.412 243.736 663.47 241.504 701.417C237.785 767.366 274.605 833.577 310.68 897.695C340.061 950.036 370.558 1004.21 378.369 1057.86C388.41 1127.99 386.179 1201.79 384.319 1273.24C383.575 1292.87 382.832 1313.02 382.46 1332.65Z" fill="white"/>
<path d="M284.275 1332.65H280.556C280.556 1304.91 281.672 1276.12 282.416 1248.38C284.647 1185.05 286.879 1119.88 277.953 1057.33C270.514 1006.04 242.249 954.223 215.099 903.976C181.255 841.69 146.295 777.049 150.386 712.67C152.617 674.985 184.23 652.74 214.727 631.019C238.902 613.746 264.192 595.689 275.349 570.042C286.507 544.656 284.275 514.56 282.044 485.511C281.3 474.258 280.556 463.528 280.556 453.583V285.308H284.275V453.322C284.275 463.528 285.019 473.996 285.763 485.25C287.994 514.56 290.226 544.918 278.696 570.827C267.167 597.259 241.877 615.316 216.959 632.851C185.718 655.095 155.965 676.293 153.733 712.932C149.642 776.788 184.602 841.167 218.446 903.191C245.968 953.438 274.233 1005.52 281.672 1057.33C290.598 1119.88 288.366 1185.57 286.135 1248.64C285.391 1276.12 284.275 1304.91 284.275 1332.65Z" fill="white"/>
<path d="M186.09 1332.65H182.371C182.371 1304.12 183.115 1275.07 183.487 1247.07C184.974 1184.78 186.462 1120.67 180.883 1058.12C176.792 1010.49 158.94 962.858 141.832 916.798C121.749 862.364 100.922 806.359 102.038 749.831C102.781 713.193 122.865 681.265 142.204 650.384C157.453 625.522 173.445 600.137 179.768 572.134C193.528 509.326 189.809 441.021 186.09 375.072C184.231 345.499 182.743 314.618 182.743 285.569H186.462C186.462 314.618 188.322 345.237 189.809 375.072C193.528 441.021 197.62 509.326 183.487 572.658C177.164 600.922 161.172 626.569 145.552 651.431C126.584 682.05 106.501 713.978 105.757 750.093C104.641 806.359 125.468 862.364 145.552 916.537C162.66 962.597 180.511 1010.49 184.603 1058.38C190.181 1120.93 188.694 1185.31 187.206 1247.59C186.834 1275.07 186.09 1304.38 186.09 1332.65Z" fill="white"/>
<path d="M87.9035 1332.65H84.1843C84.1843 1301.77 84.1843 1270.62 84.5563 1239.74C84.9282 1180.33 85.3001 1119.1 84.1843 1058.9C83.4405 1014.94 77.118 970.448 70.7954 927.529C64.101 882.516 57.0346 835.671 57.0346 789.611C57.0346 751.141 64.101 712.408 70.7954 674.985C76.7461 642.01 83.0686 607.989 84.1843 574.229C86.7877 510.373 85.672 445.471 84.9282 382.4C84.5563 350.472 84.1843 317.759 84.1843 285.308H87.9035C87.9035 317.498 88.2754 350.472 88.6473 382.4C89.3911 445.471 90.5069 510.373 87.9035 574.229C86.4158 608.25 80.4652 642.272 74.5146 675.247C67.8201 712.409 60.7537 751.141 60.7537 789.349C60.7537 835.409 67.8201 881.993 74.5146 927.006C80.8371 970.187 87.5316 1014.68 87.9035 1058.64C88.6473 1118.83 88.2754 1180.33 88.2754 1239.48C88.2754 1270.62 87.9035 1301.77 87.9035 1332.65Z" fill="white"/>
</g>
<defs>
<linearGradient id="paint0_linear_2_1000" x1="720" y1="300" x2="720" y2="0" gradientUnits="userSpaceOnUse">
<stop stop-color="#A87CE1"/>
<stop offset="1" stop-color="#121212"/>
</linearGradient>
<linearGradient id="paint1_linear_2_1000" x1="773" y1="234.5" x2="773" y2="14" gradientUnits="userSpaceOnUse">
<stop stop-color="white"/>
<stop offset="1" stop-color="#513772"/>
</linearGradient>
<clipPath id="clip0_2_1000">
<rect width="1440" height="300" fill="white"/>
</clipPath>
<clipPath id="clip1_2_1000">
<rect width="1440" height="1024" fill="white" transform="translate(0 300)"/>
</clipPath>
</defs>
</svg>
