<svg width="41" height="41" viewBox="0 0 41 41" fill="none" xmlns="http://www.w3.org/2000/svg">
<rect width="40.5634" height="40.5634" rx="9.12676" fill="white"/>
<g clip-path="url(#clip0_723_5675)">
<path d="M14.8649 14.6479H10.7933C10.6126 14.6479 10.4662 14.7944 10.4662 14.9751V28.0553C10.4662 28.236 10.6126 28.3824 10.7933 28.3824H14.8649C15.0456 28.3824 15.192 28.236 15.192 28.0553V14.9751C15.192 14.7944 15.0456 14.6479 14.8649 14.6479Z" fill="#333333"/>
<path d="M12.8281 8.14307C11.3466 8.14307 10.1414 9.34701 10.1414 10.8269C10.1414 12.3074 11.3466 13.5118 12.8281 13.5118C14.3084 13.5118 15.5127 12.3073 15.5127 10.8269C15.5127 9.34701 14.3084 8.14307 12.8281 8.14307Z" fill="#333333"/>
<path d="M25.2188 14.3208C23.5835 14.3208 22.3746 15.0238 21.6414 15.8226V14.973C21.6414 14.7924 21.495 14.6459 21.3143 14.6459H17.415C17.2343 14.6459 17.0879 14.7924 17.0879 14.973V28.0533C17.0879 28.234 17.2343 28.3804 17.415 28.3804H21.4777C21.6584 28.3804 21.8048 28.234 21.8048 28.0533V21.5816C21.8048 19.4008 22.3972 18.5512 23.9174 18.5512C25.573 18.5512 25.7046 19.9132 25.7046 21.6938V28.0533C25.7046 28.234 25.851 28.3805 26.0317 28.3805H30.0959C30.2766 28.3805 30.423 28.234 30.423 28.0533V20.8786C30.423 17.6358 29.8047 14.3208 25.2188 14.3208Z" fill="#333333"/>
</g>
<defs>
<clipPath id="clip0_723_5675">
<rect width="20.2817" height="20.2817" fill="white" transform="translate(10.1409 8.11475)"/>
</clipPath>
</defs>
</svg>
