<svg width="1440" height="1024" viewBox="0 0 1440 1024" fill="none" xmlns="http://www.w3.org/2000/svg">
<g clip-path="url(#clip0_723_5173)">
<rect x="-18.5" y="-0.5" width="99.4" height="103.4" stroke="#5A407B"/>
<rect x="79.9" y="-0.5" width="99.4" height="103.4" stroke="#5A407B"/>
<rect x="178.3" y="-0.5" width="99.4" height="103.4" stroke="#5A407B"/>
<rect x="276.7" y="-0.5" width="99.4" height="103.4" stroke="#5A407B"/>
<rect x="375.1" y="-0.5" width="99.4" height="103.4" stroke="#5A407B"/>
<rect x="473.5" y="-0.5" width="99.4" height="103.4" stroke="#5A407B"/>
<rect x="571.9" y="-0.5" width="99.4" height="103.4" stroke="#5A407B"/>
<rect x="670.3" y="-0.5" width="99.4" height="103.4" stroke="#5A407B"/>
<rect x="768.7" y="-0.5" width="99.4" height="103.4" stroke="#5A407B"/>
<rect x="867.1" y="-0.5" width="99.4" height="103.4" stroke="#5A407B"/>
<rect x="965.5" y="-0.5" width="99.4" height="103.4" stroke="#5A407B"/>
<rect x="1063.9" y="-0.5" width="99.4" height="103.4" stroke="#5A407B"/>
<rect x="1162.3" y="-0.5" width="99.4" height="103.4" stroke="#5A407B"/>
<rect x="1260.7" y="-0.5" width="99.4" height="103.4" stroke="#5A407B"/>
<rect x="1260.7" y="-0.5" width="99.4" height="103.4" stroke="#5A407B"/>
<rect x="1359.1" y="-0.5" width="99.4" height="103.4" stroke="#5A407B"/>
<rect x="-18.5" y="101.9" width="99.4" height="103.4" stroke="#5A407B"/>
<rect x="79.9" y="101.9" width="99.4" height="103.4" stroke="#5A407B"/>
<rect x="178.3" y="101.9" width="99.4" height="103.4" stroke="#5A407B"/>
<rect x="276.7" y="101.9" width="99.4" height="103.4" stroke="#5A407B"/>
<rect x="375.1" y="101.9" width="99.4" height="103.4" stroke="#5A407B"/>
<rect x="473.5" y="101.9" width="99.4" height="103.4" stroke="#5A407B"/>
<rect x="571.9" y="101.9" width="99.4" height="103.4" stroke="#5A407B"/>
<rect x="670.3" y="101.9" width="99.4" height="103.4" stroke="#5A407B"/>
<rect x="768.7" y="101.9" width="99.4" height="103.4" stroke="#5A407B"/>
<rect x="867.1" y="101.9" width="99.4" height="103.4" stroke="#5A407B"/>
<rect x="965.5" y="101.9" width="99.4" height="103.4" stroke="#5A407B"/>
<rect x="1063.9" y="101.9" width="99.4" height="103.4" stroke="#5A407B"/>
<rect x="1162.3" y="101.9" width="99.4" height="103.4" stroke="#5A407B"/>
<rect x="1260.7" y="101.9" width="99.4" height="103.4" stroke="#5A407B"/>
<rect x="1359.1" y="101.9" width="99.4" height="103.4" stroke="#5A407B"/>
<rect x="-18.5" y="204.3" width="99.4" height="103.4" stroke="#5A407B"/>
<rect x="79.9" y="204.3" width="99.4" height="103.4" stroke="#5A407B"/>
<rect x="178.3" y="204.3" width="99.4" height="103.4" stroke="#5A407B"/>
<rect x="276.7" y="204.3" width="99.4" height="103.4" stroke="#5A407B"/>
<rect x="375.1" y="204.3" width="99.4" height="103.4" stroke="#5A407B"/>
<rect x="473.5" y="204.3" width="99.4" height="103.4" stroke="#5A407B"/>
<rect x="571.9" y="204.3" width="99.4" height="103.4" stroke="#5A407B"/>
<rect x="670.3" y="204.3" width="99.4" height="103.4" stroke="#5A407B"/>
<rect x="768.7" y="204.3" width="99.4" height="103.4" stroke="#5A407B"/>
<rect x="867.1" y="204.3" width="99.4" height="103.4" stroke="#5A407B"/>
<rect x="965.5" y="204.3" width="99.4" height="103.4" stroke="#5A407B"/>
<rect x="1063.9" y="204.3" width="99.4" height="103.4" stroke="#5A407B"/>
<rect x="1162.3" y="204.3" width="99.4" height="103.4" stroke="#5A407B"/>
<rect x="1260.7" y="204.3" width="99.4" height="103.4" stroke="#5A407B"/>
<rect x="1359.1" y="204.3" width="99.4" height="103.4" stroke="#5A407B"/>
<rect x="-18.5" y="306.7" width="99.4" height="103.4" stroke="#5A407B"/>
<rect x="79.9" y="306.7" width="99.4" height="103.4" stroke="#5A407B"/>
<rect x="178.3" y="306.7" width="99.4" height="103.4" stroke="#5A407B"/>
<rect x="276.7" y="306.7" width="99.4" height="103.4" stroke="#5A407B"/>
<rect x="375.1" y="306.7" width="99.4" height="103.4" stroke="#5A407B"/>
<rect x="473.5" y="306.7" width="99.4" height="103.4" stroke="#5A407B"/>
<rect x="571.9" y="306.7" width="99.4" height="103.4" stroke="#5A407B"/>
<rect x="670.3" y="306.7" width="99.4" height="103.4" stroke="#5A407B"/>
<rect x="768.7" y="306.7" width="99.4" height="103.4" stroke="#5A407B"/>
<rect x="867.1" y="306.7" width="99.4" height="103.4" stroke="#5A407B"/>
<rect x="965.5" y="306.7" width="99.4" height="103.4" stroke="#5A407B"/>
<rect x="1063.9" y="306.7" width="99.4" height="103.4" stroke="#5A407B"/>
<rect x="1162.3" y="306.7" width="99.4" height="103.4" stroke="#5A407B"/>
<rect x="1260.7" y="306.7" width="99.4" height="103.4" stroke="#5A407B"/>
<rect x="1359.1" y="306.7" width="99.4" height="103.4" stroke="#5A407B"/>
<rect x="-18.5" y="409.1" width="99.4" height="103.4" stroke="#5A407B"/>
<rect x="79.9" y="409.1" width="99.4" height="103.4" stroke="#5A407B"/>
<rect x="178.3" y="409.1" width="99.4" height="103.4" stroke="#5A407B"/>
<rect x="276.7" y="409.1" width="99.4" height="103.4" stroke="#5A407B"/>
<rect x="375.1" y="409.1" width="99.4" height="103.4" stroke="#5A407B"/>
<rect x="473.5" y="409.1" width="99.4" height="103.4" stroke="#5A407B"/>
<rect x="571.9" y="409.1" width="99.4" height="103.4" stroke="#5A407B"/>
<rect x="670.3" y="409.1" width="99.4" height="103.4" stroke="#5A407B"/>
<rect x="768.7" y="409.1" width="99.4" height="103.4" stroke="#5A407B"/>
<rect x="867.1" y="409.1" width="99.4" height="103.4" stroke="#5A407B"/>
<rect x="965.5" y="409.1" width="99.4" height="103.4" stroke="#5A407B"/>
<rect x="1063.9" y="409.1" width="99.4" height="103.4" stroke="#5A407B"/>
<rect x="1162.3" y="409.1" width="99.4" height="103.4" stroke="#5A407B"/>
<rect x="1260.7" y="409.1" width="99.4" height="103.4" stroke="#5A407B"/>
<rect x="1359.1" y="409.1" width="99.4" height="103.4" stroke="#5A407B"/>
<rect x="-18.5" y="511.5" width="99.4" height="103.4" stroke="#5A407B"/>
<rect x="79.9" y="511.5" width="99.4" height="103.4" stroke="#5A407B"/>
<rect x="178.3" y="511.5" width="99.4" height="103.4" stroke="#5A407B"/>
<rect x="276.7" y="511.5" width="99.4" height="103.4" stroke="#5A407B"/>
<rect x="375.1" y="511.5" width="99.4" height="103.4" stroke="#5A407B"/>
<rect x="473.5" y="511.5" width="99.4" height="103.4" stroke="#5A407B"/>
<rect x="571.9" y="511.5" width="99.4" height="103.4" stroke="#5A407B"/>
<rect x="670.3" y="511.5" width="99.4" height="103.4" stroke="#5A407B"/>
<rect x="768.7" y="511.5" width="99.4" height="103.4" stroke="#5A407B"/>
<rect x="867.1" y="511.5" width="99.4" height="103.4" stroke="#5A407B"/>
<rect x="965.5" y="511.5" width="99.4" height="103.4" stroke="#5A407B"/>
<rect x="1063.9" y="511.5" width="99.4" height="103.4" stroke="#5A407B"/>
<rect x="1162.3" y="511.5" width="99.4" height="103.4" stroke="#5A407B"/>
<rect x="1260.7" y="511.5" width="99.4" height="103.4" stroke="#5A407B"/>
<rect x="1359.1" y="511.5" width="99.4" height="103.4" stroke="#5A407B"/>
<rect x="-18.5" y="613.9" width="99.4" height="103.4" stroke="#5A407B"/>
<rect x="79.9" y="613.9" width="99.4" height="103.4" stroke="#5A407B"/>
<rect x="178.3" y="613.9" width="99.4" height="103.4" stroke="#5A407B"/>
<rect x="276.7" y="613.9" width="99.4" height="103.4" stroke="#5A407B"/>
<rect x="375.1" y="613.9" width="99.4" height="103.4" stroke="#5A407B"/>
<rect x="473.5" y="613.9" width="99.4" height="103.4" stroke="#5A407B"/>
<rect x="571.9" y="613.9" width="99.4" height="103.4" stroke="#5A407B"/>
<rect x="670.3" y="613.9" width="99.4" height="103.4" stroke="#5A407B"/>
<rect x="768.7" y="613.9" width="99.4" height="103.4" stroke="#5A407B"/>
<rect x="867.1" y="613.9" width="99.4" height="103.4" stroke="#5A407B"/>
<rect x="965.5" y="613.9" width="99.4" height="103.4" stroke="#5A407B"/>
<rect x="1063.9" y="613.9" width="99.4" height="103.4" stroke="#5A407B"/>
<rect x="1162.3" y="613.9" width="99.4" height="103.4" stroke="#5A407B"/>
<rect x="1260.7" y="613.9" width="99.4" height="103.4" stroke="#5A407B"/>
<rect x="1359.1" y="613.9" width="99.4" height="103.4" stroke="#5A407B"/>
<rect x="-18.5" y="716.3" width="99.4" height="103.4" stroke="#5A407B"/>
<rect x="79.9" y="716.3" width="99.4" height="103.4" stroke="#5A407B"/>
<rect x="178.3" y="716.3" width="99.4" height="103.4" stroke="#5A407B"/>
<rect x="276.7" y="716.3" width="99.4" height="103.4" stroke="#5A407B"/>
<rect x="375.1" y="716.3" width="99.4" height="103.4" stroke="#5A407B"/>
<rect x="473.5" y="716.3" width="99.4" height="103.4" stroke="#5A407B"/>
<rect x="571.9" y="716.3" width="99.4" height="103.4" stroke="#5A407B"/>
<rect x="670.3" y="716.3" width="99.4" height="103.4" stroke="#5A407B"/>
<rect x="768.7" y="716.3" width="99.4" height="103.4" stroke="#5A407B"/>
<rect x="867.1" y="716.3" width="99.4" height="103.4" stroke="#5A407B"/>
<rect x="965.5" y="716.3" width="99.4" height="103.4" stroke="#5A407B"/>
<rect x="1063.9" y="716.3" width="99.4" height="103.4" stroke="#5A407B"/>
<rect x="1162.3" y="716.3" width="99.4" height="103.4" stroke="#5A407B"/>
<rect x="1260.7" y="716.3" width="99.4" height="103.4" stroke="#5A407B"/>
<rect x="1359.1" y="716.3" width="99.4" height="103.4" stroke="#5A407B"/>
<rect x="-18.5" y="818.7" width="99.4" height="103.4" stroke="#5A407B"/>
<rect x="79.9" y="818.7" width="99.4" height="103.4" stroke="#5A407B"/>
<rect x="178.3" y="818.7" width="99.4" height="103.4" stroke="#5A407B"/>
<rect x="276.7" y="818.7" width="99.4" height="103.4" stroke="#5A407B"/>
<rect x="375.1" y="818.7" width="99.4" height="103.4" stroke="#5A407B"/>
<rect x="473.5" y="818.7" width="99.4" height="103.4" stroke="#5A407B"/>
<rect x="571.9" y="818.7" width="99.4" height="103.4" stroke="#5A407B"/>
<rect x="670.3" y="818.7" width="99.4" height="103.4" stroke="#5A407B"/>
<rect x="768.7" y="818.7" width="99.4" height="103.4" stroke="#5A407B"/>
<rect x="867.1" y="818.7" width="99.4" height="103.4" stroke="#5A407B"/>
<rect x="965.5" y="818.7" width="99.4" height="103.4" stroke="#5A407B"/>
<rect x="1063.9" y="818.7" width="99.4" height="103.4" stroke="#5A407B"/>
<rect x="1162.3" y="818.7" width="99.4" height="103.4" stroke="#5A407B"/>
<rect x="1260.7" y="818.7" width="99.4" height="103.4" stroke="#5A407B"/>
<rect x="1260.7" y="818.7" width="99.4" height="103.4" stroke="#5A407B"/>
<rect x="1359.1" y="818.7" width="99.4" height="103.4" stroke="#5A407B"/>
<rect x="-18.5" y="921.1" width="99.4" height="103.4" stroke="#5A407B"/>
<rect x="79.9" y="921.1" width="99.4" height="103.4" stroke="#5A407B"/>
<rect x="178.3" y="921.1" width="99.4" height="103.4" stroke="#5A407B"/>
<rect x="276.7" y="921.1" width="99.4" height="103.4" stroke="#5A407B"/>
<rect x="375.1" y="921.1" width="99.4" height="103.4" stroke="#5A407B"/>
<rect x="473.5" y="921.1" width="99.4" height="103.4" stroke="#5A407B"/>
<rect x="571.9" y="921.1" width="99.4" height="103.4" stroke="#5A407B"/>
<rect x="670.3" y="921.1" width="99.4" height="103.4" stroke="#5A407B"/>
<rect x="768.7" y="921.1" width="99.4" height="103.4" stroke="#5A407B"/>
<rect x="867.1" y="921.1" width="99.4" height="103.4" stroke="#5A407B"/>
<rect x="965.5" y="921.1" width="99.4" height="103.4" stroke="#5A407B"/>
<rect x="1063.9" y="921.1" width="99.4" height="103.4" stroke="#5A407B"/>
<rect x="1162.3" y="921.1" width="99.4" height="103.4" stroke="#5A407B"/>
<rect x="1260.7" y="921.1" width="99.4" height="103.4" stroke="#5A407B"/>
<rect x="1359.1" y="921.1" width="99.4" height="103.4" stroke="#5A407B"/>
</g>
<defs>
<clipPath id="clip0_723_5173">
<rect width="1476" height="1024" fill="white" transform="translate(-18)"/>
</clipPath>
</defs>
</svg>
