<svg width="1440" height="300" viewBox="0 0 1440 300" fill="none" xmlns="http://www.w3.org/2000/svg">
<g clip-path="url(#clip0_723_5016)">
<rect x="-18.5" y="-55.3" width="99.4" height="103.4" stroke="#5A407B"/>
<rect x="79.9" y="-55.3" width="99.4" height="103.4" stroke="#5A407B"/>
<rect x="178.3" y="-55.3" width="99.4" height="103.4" stroke="#5A407B"/>
<rect x="276.7" y="-55.3" width="99.4" height="103.4" stroke="#5A407B"/>
<rect x="375.1" y="-55.3" width="99.4" height="103.4" stroke="#5A407B"/>
<rect x="473.5" y="-55.3" width="99.4" height="103.4" stroke="#5A407B"/>
<rect x="571.9" y="-55.3" width="99.4" height="103.4" stroke="#5A407B"/>
<rect x="670.3" y="-55.3" width="99.4" height="103.4" stroke="#5A407B"/>
<rect x="768.7" y="-55.3" width="99.4" height="103.4" stroke="#5A407B"/>
<rect x="867.1" y="-55.3" width="99.4" height="103.4" stroke="#5A407B"/>
<rect x="965.5" y="-55.3" width="99.4" height="103.4" stroke="#5A407B"/>
<rect x="1063.9" y="-55.3" width="99.4" height="103.4" stroke="#5A407B"/>
<rect x="1162.3" y="-55.3" width="99.4" height="103.4" stroke="#5A407B"/>
<rect x="1260.7" y="-55.3" width="99.4" height="103.4" stroke="#5A407B"/>
<rect x="1359.1" y="-55.3" width="99.4" height="103.4" stroke="#5A407B"/>
<rect x="-18.5" y="47.1" width="99.4" height="103.4" stroke="#5A407B"/>
<rect x="79.9" y="47.1" width="99.4" height="103.4" stroke="#5A407B"/>
<rect x="178.3" y="47.1" width="99.4" height="103.4" stroke="#5A407B"/>
<rect x="276.7" y="47.1" width="99.4" height="103.4" stroke="#5A407B"/>
<rect x="375.1" y="47.1" width="99.4" height="103.4" stroke="#5A407B"/>
<rect x="473.5" y="47.1" width="99.4" height="103.4" stroke="#5A407B"/>
<rect x="571.9" y="47.1" width="99.4" height="103.4" stroke="#5A407B"/>
<rect x="670.3" y="47.1" width="99.4" height="103.4" stroke="#5A407B"/>
<rect x="768.7" y="47.1" width="99.4" height="103.4" stroke="#5A407B"/>
<rect x="867.1" y="47.1" width="99.4" height="103.4" stroke="#5A407B"/>
<rect x="965.5" y="47.1" width="99.4" height="103.4" stroke="#5A407B"/>
<rect x="1063.9" y="47.1" width="99.4" height="103.4" stroke="#5A407B"/>
<rect x="1162.3" y="47.1" width="99.4" height="103.4" stroke="#5A407B"/>
<rect x="1260.7" y="47.1" width="99.4" height="103.4" stroke="#5A407B"/>
<rect x="1359.1" y="47.1" width="99.4" height="103.4" stroke="#5A407B"/>
<rect x="-18.5" y="149.5" width="99.4" height="103.4" stroke="#5A407B"/>
<rect x="79.9" y="149.5" width="99.4" height="103.4" stroke="#5A407B"/>
<rect x="178.3" y="149.5" width="99.4" height="103.4" stroke="#5A407B"/>
<rect x="276.7" y="149.5" width="99.4" height="103.4" stroke="#5A407B"/>
<rect x="375.1" y="149.5" width="99.4" height="103.4" stroke="#5A407B"/>
<rect x="473.5" y="149.5" width="99.4" height="103.4" stroke="#5A407B"/>
<rect x="571.9" y="149.5" width="99.4" height="103.4" stroke="#5A407B"/>
<rect x="670.3" y="149.5" width="99.4" height="103.4" stroke="#5A407B"/>
<rect x="768.7" y="149.5" width="99.4" height="103.4" stroke="#5A407B"/>
<rect x="867.1" y="149.5" width="99.4" height="103.4" stroke="#5A407B"/>
<rect x="965.5" y="149.5" width="99.4" height="103.4" stroke="#5A407B"/>
<rect x="1063.9" y="149.5" width="99.4" height="103.4" stroke="#5A407B"/>
<rect x="1162.3" y="149.5" width="99.4" height="103.4" stroke="#5A407B"/>
<rect x="1260.7" y="149.5" width="99.4" height="103.4" stroke="#5A407B"/>
<rect x="1359.1" y="149.5" width="99.4" height="103.4" stroke="#5A407B"/>
<rect x="-18.5" y="251.9" width="99.4" height="103.4" stroke="#5A407B"/>
<rect x="79.9" y="251.9" width="99.4" height="103.4" stroke="#5A407B"/>
<rect x="178.3" y="251.9" width="99.4" height="103.4" stroke="#5A407B"/>
<rect x="276.7" y="251.9" width="99.4" height="103.4" stroke="#5A407B"/>
<rect x="375.1" y="251.9" width="99.4" height="103.4" stroke="#5A407B"/>
<rect x="473.5" y="251.9" width="99.4" height="103.4" stroke="#5A407B"/>
<rect x="571.9" y="251.9" width="99.4" height="103.4" stroke="#5A407B"/>
<rect x="670.3" y="251.9" width="99.4" height="103.4" stroke="#5A407B"/>
<rect x="768.7" y="251.9" width="99.4" height="103.4" stroke="#5A407B"/>
<rect x="867.1" y="251.9" width="99.4" height="103.4" stroke="#5A407B"/>
<rect x="965.5" y="251.9" width="99.4" height="103.4" stroke="#5A407B"/>
<rect x="1063.9" y="251.9" width="99.4" height="103.4" stroke="#5A407B"/>
<rect x="1162.3" y="251.9" width="99.4" height="103.4" stroke="#5A407B"/>
<rect x="1260.7" y="251.9" width="99.4" height="103.4" stroke="#5A407B"/>
<rect x="1359.1" y="251.9" width="99.4" height="103.4" stroke="#5A407B"/>
</g>
<defs>
<clipPath id="clip0_723_5016">
<rect width="1476" height="1024" fill="white" transform="translate(-18 -362)"/>
</clipPath>
</defs>
</svg>
