<svg width="41" height="41" viewBox="0 0 41 41" fill="none" xmlns="http://www.w3.org/2000/svg">
<rect width="40.5634" height="40.5634" rx="9.12676" fill="white"/>
<g clip-path="url(#clip0_723_5681)">
<path d="M29.9602 13.8968C29.6415 14.0381 29.314 14.1574 28.9792 14.2542C29.3755 13.8061 29.6777 13.2788 29.8621 12.7017C29.9034 12.5724 29.8606 12.4308 29.7543 12.3462C29.6481 12.2615 29.5005 12.2514 29.3836 12.3207C28.6728 12.7423 27.9059 13.0453 27.1017 13.2224C26.2917 12.4309 25.1915 11.9805 24.0542 11.9805C21.6534 11.9805 19.7002 13.9336 19.7002 16.3343C19.7002 16.5234 19.7122 16.7114 19.7359 16.8968C16.7568 16.6352 13.9871 15.171 12.0852 12.838C12.0175 12.7548 11.9131 12.71 11.8061 12.7186C11.6992 12.727 11.6031 12.7873 11.549 12.88C11.1633 13.5419 10.9594 14.2989 10.9594 15.0692C10.9594 16.1183 11.3339 17.1136 11.9956 17.8914C11.7944 17.8217 11.5991 17.7346 11.4128 17.6312C11.3128 17.5755 11.1907 17.5764 11.0913 17.6334C10.9919 17.6904 10.9295 17.7952 10.9269 17.9097C10.9264 17.929 10.9264 17.9483 10.9264 17.9679C10.9264 19.5338 11.7692 20.9437 13.0578 21.7121C12.9471 21.701 12.8365 21.685 12.7265 21.664C12.6132 21.6423 12.4967 21.682 12.4203 21.7685C12.3437 21.8548 12.3184 21.9752 12.3537 22.0851C12.8306 23.5742 14.0586 24.6695 15.5431 25.0034C14.3119 25.7746 12.9038 26.1785 11.4258 26.1785C11.1174 26.1785 10.8072 26.1604 10.5036 26.1245C10.3528 26.1065 10.2086 26.1956 10.1572 26.339C10.1059 26.4825 10.1603 26.6424 10.2886 26.7247C12.1874 27.9422 14.383 28.5857 16.6379 28.5857C21.0707 28.5857 23.8437 26.4954 25.3894 24.7418C27.3168 22.5552 28.4222 19.661 28.4222 16.8014C28.4222 16.6819 28.4204 16.5613 28.4167 16.441C29.1772 15.8681 29.8319 15.1747 30.3646 14.3778C30.4455 14.2567 30.4368 14.0968 30.343 13.9853C30.2494 13.8739 30.0934 13.8378 29.9602 13.8968Z" fill="#333333"/>
</g>
<defs>
<clipPath id="clip0_723_5681">
<rect width="20.2817" height="20.2817" fill="white" transform="translate(10.1405 10.1426)"/>
</clipPath>
</defs>
</svg>
